<svg xmlns="http://www.w3.org/2000/svg" xmlns:xlink="http://www.w3.org/1999/xlink" width="1570" height="1194" viewBox="0 0 1570 1194" fill="none" version="1.1" id="svg14439">
  <rect width="1570" height="1194" fill="#F6F2FD" id="rect14147"/>
  <path d="M820 385.2c-119-93-377-113-442-84 184-163 712-167 848-90-113-26-355 90-406 174z" stroke="#76A5FF" stroke-width="18" id="path14149"/>
  <path d="M141 675.3l210-378m0 0l-48 433m48-433l84 389" stroke="#45403E" stroke-width="18" id="path14151"/>
  <g transform="translate(39.6 985.6)" id="g9904">
    <path d="M32.4-370.4l-8 1.3 10.2 107.5 103.8 23.5" id="path9811"/>
    <path id="path6840" fill="#8BDCFF" d="M45.9-274.6l-8-89.5 95-13 8.2 71.7z"/>
    <path id="path6842" stroke="#000" d="M32.4-370.4l9 104m-9-104l106-13 9 83m-115-70l-8 1.3 10.2 107.5 103.8 23.5m-97-28.3l106-34m-106 34l97 21m9-55l89 16m-98 39l98-39m-98 39v7.3m98-46.3v7.5l-98 38.8m-92.5-36.5l-8-89.5 95-13 8.2 71.7z"/>
    <path id="path6844" fill="#9C81BD" d="M41.4-266.4l-9-104-8 1.3 10.2 107.5 103.8 23.5v-7.3z"/>
    <path d="M45.9-274.6l-8-89.5 95-13 8.2 71.7z" id="path9860"/>
    <path d="M236.4-284.4v7.5l-98 38.8" id="path9858"/>
    <path d="M138.4-245.4v7.3" id="path9856"/>
    <path d="M138.4-245.4l98-39" id="path9854"/>
    <path d="M147.4-300.4l89 16" id="path9852"/>
    <path d="M41.4-266.4l97 21" id="path9850"/>
    <path d="M41.4-266.4l106-34" id="path9848"/>
    <path d="M32.4-370.4l106-13 9 83" id="path9844"/>
    <path d="M32.4-370.4l9 104" id="path6850"/>
    <path id="path6848" fill="#FBA0F2" d="M147.4-300.4l-106 34 97 21 98-39z"/>
    <path id="path6854" fill="#B64FC7" d="M32.4-370.4l9 104 106-34-9-83zm5.5 6.3l8 89.5 95.2-30.8L133-377z" clip-rule="evenodd" fill-rule="evenodd"/>
    <path d="M236.4-284.4v7.5l-98 38.8" id="path9823"/>
    <path d="M138.4-245.4v7.3" id="path9821"/>
    <path d="M147.4-300.4l89 16" id="path9817"/>
    <path d="M41.4-266.4l97 21" id="path9815"/>
    <path d="M41.4-266.4l106-34" id="path9813"/>
    <path d="M138.4-245.4l98-39" id="path9819"/>
    <path d="M32.4-370.4l9 104" id="path6856"/>
    <path d="M236.4-284.4l-98 39v7.3l98-38.8z" fill="#B64FC7" id="path6852"/>
    <path id="path9825" d="M45.9-274.6l-8-89.5 95-13 8.2 71.7z" style="fill:#8bdcff;fill-opacity:1"/>
    <path id="path6846" stroke="#000" d="M32.4-370.4l9 104m-9-104l106-13 9 83m-115-70l-8 1.3 10.2 107.5 103.8 23.5m-97-28.3l106-34m-106 34l97 21m9-55l89 16m-98 39l98-39m-98 39v7.3m98-46.3v7.5l-98 38.8m-92.5-36.5l-8-89.5 95-13 8.2 71.7z" style="fill:none"/>
  </g>
  <g transform="translate(336.6 985.6)" id="g10283">
    <path id="path10233" d="M32.4-370.4l-8 1.3 10.2 107.5 103.8 23.5"/>
    <path d="M45.9-274.6l-8-89.5 95-13 8.2 71.7z" fill="#8BDCFF" id="path10235"/>
    <path d="M32.4-370.4l9 104m-9-104l106-13 9 83m-115-70l-8 1.3 10.2 107.5 103.8 23.5m-97-28.3l106-34m-106 34l97 21m9-55l89 16m-98 39l98-39m-98 39v7.3m98-46.3v7.5l-98 38.8m-92.5-36.5l-8-89.5 95-13 8.2 71.7z" stroke="#000" id="path10237"/>
    <path d="M41.4-266.4l-9-104-8 1.3 10.2 107.5 103.8 23.5v-7.3z" fill="#9C81BD" id="path10239"/>
    <path id="path10241" d="M45.9-274.6l-8-89.5 95-13 8.2 71.7z"/>
    <path id="path10243" d="M236.4-284.4v7.5l-98 38.8"/>
    <path id="path10245" d="M138.4-245.4v7.3"/>
    <path id="path10247" d="M138.4-245.4l98-39"/>
    <path id="path10249" d="M147.4-300.4l89 16"/>
    <path id="path10251" d="M41.4-266.4l97 21"/>
    <path id="path10253" d="M41.4-266.4l106-34"/>
    <path id="path10255" d="M32.4-370.4l106-13 9 83"/>
    <path id="path10257" d="M32.4-370.4l9 104"/>
    <path d="M147.4-300.4l-106 34 97 21 98-39z" fill="#FBA0F2" id="path10259"/>
    <path fill-rule="evenodd" clip-rule="evenodd" d="M32.4-370.4l9 104 106-34-9-83zm5.5 6.3l8 89.5 95.2-30.8L133-377z" fill="#B64FC7" id="path10261"/>
    <path id="path10263" d="M236.4-284.4v7.5l-98 38.8"/>
    <path id="path10265" d="M138.4-245.4v7.3"/>
    <path id="path10267" d="M147.4-300.4l89 16"/>
    <path id="path10269" d="M41.4-266.4l97 21"/>
    <path id="path10271" d="M41.4-266.4l106-34"/>
    <path id="path10273" d="M138.4-245.4l98-39"/>
    <path id="path10275" d="M32.4-370.4l9 104"/>
    <path id="path10277" fill="#B64FC7" d="M236.4-284.4l-98 39v7.3l98-38.8z"/>
    <path style="fill:#8bdcff;fill-opacity:1" d="M45.9-274.6l-8-89.5 95-13 8.2 71.7z" id="path10279"/>
    <path style="fill:none" d="M32.4-370.4l9 104m-9-104l106-13 9 83m-115-70l-8 1.3 10.2 107.5 103.8 23.5m-97-28.3l106-34m-106 34l97 21m9-55l89 16m-98 39l98-39m-98 39v7.3m98-46.3v7.5l-98 38.8m-92.5-36.5l-8-89.5 95-13 8.2 71.7z" stroke="#000" id="path10281"/>
  </g>
  <g transform="translate(194.6 1036.6)" id="g9956">
    <path id="path9906" d="M32.4-370.4l-8 1.3 10.2 107.5 103.8 23.5"/>
    <path d="M45.9-274.6l-8-89.5 95-13 8.2 71.7z" fill="#8BDCFF" id="path9908"/>
    <path d="M32.4-370.4l9 104m-9-104l106-13 9 83m-115-70l-8 1.3 10.2 107.5 103.8 23.5m-97-28.3l106-34m-106 34l97 21m9-55l89 16m-98 39l98-39m-98 39v7.3m98-46.3v7.5l-98 38.8m-92.5-36.5l-8-89.5 95-13 8.2 71.7z" stroke="#000" id="path9910"/>
    <path d="M41.4-266.4l-9-104-8 1.3 10.2 107.5 103.8 23.5v-7.3z" fill="#9C81BD" id="path9912"/>
    <path id="path9914" d="M45.9-274.6l-8-89.5 95-13 8.2 71.7z"/>
    <path id="path9916" d="M236.4-284.4v7.5l-98 38.8"/>
    <path id="path9918" d="M138.4-245.4v7.3"/>
    <path id="path9920" d="M138.4-245.4l98-39"/>
    <path id="path9922" d="M147.4-300.4l89 16"/>
    <path id="path9924" d="M41.4-266.4l97 21"/>
    <path id="path9926" d="M41.4-266.4l106-34"/>
    <path id="path9928" d="M32.4-370.4l106-13 9 83"/>
    <path id="path9930" d="M32.4-370.4l9 104"/>
    <path d="M147.4-300.4l-106 34 97 21 98-39z" fill="#FBA0F2" id="path9932"/>
    <path fill-rule="evenodd" clip-rule="evenodd" d="M32.4-370.4l9 104 106-34-9-83zm5.5 6.3l8 89.5 95.2-30.8L133-377z" fill="#B64FC7" id="path9934"/>
    <path id="path9936" d="M236.4-284.4v7.5l-98 38.8"/>
    <path id="path9938" d="M138.4-245.4v7.3"/>
    <path id="path9940" d="M147.4-300.4l89 16"/>
    <path id="path9942" d="M41.4-266.4l97 21"/>
    <path id="path9944" d="M41.4-266.4l106-34"/>
    <path id="path9946" d="M138.4-245.4l98-39"/>
    <path id="path9948" d="M32.4-370.4l9 104"/>
    <path id="path9950" fill="#B64FC7" d="M236.4-284.4l-98 39v7.3l98-38.8z"/>
    <path style="fill:#8bdcff;fill-opacity:1" d="M45.9-274.6l-8-89.5 95-13 8.2 71.7z" id="path9952"/>
    <path style="fill:none" d="M32.4-370.4l9 104m-9-104l106-13 9 83m-115-70l-8 1.3 10.2 107.5 103.8 23.5m-97-28.3l106-34m-106 34l97 21m9-55l89 16m-98 39l98-39m-98 39v7.3m98-46.3v7.5l-98 38.8m-92.5-36.5l-8-89.5 95-13 8.2 71.7z" stroke="#000" id="path9954"/>
  </g>
  <path d="M729 793.3l104.8-387m0 0l36.2 459m-36.3-459l110.3 349" stroke="#45403E" stroke-width="18" id="path14153"/>
  <g transform="matrix(-1 0 0 1 1057.4 1048.5)" id="g19339">
    <path id="path19289" d="M32.4-370.4l-8 1.3 10.2 107.5 103.8 23.5"/>
    <path d="M45.9-274.6l-8-89.5 95-13 8.2 71.7z" fill="#8BDCFF" id="path19291"/>
    <path d="M32.4-370.4l9 104m-9-104l106-13 9 83m-115-70l-8 1.3 10.2 107.5 103.8 23.5m-97-28.3l106-34m-106 34l97 21m9-55l89 16m-98 39l98-39m-98 39v7.3m98-46.3v7.5l-98 38.8m-92.5-36.5l-8-89.5 95-13 8.2 71.7z" stroke="#000" id="path19293"/>
    <path d="M41.4-266.4l-9-104-8 1.3 10.2 107.5 103.8 23.5v-7.3z" fill="#9C81BD" id="path19295"/>
    <path id="path19297" d="M45.9-274.6l-8-89.5 95-13 8.2 71.7z"/>
    <path id="path19299" d="M236.4-284.4v7.5l-98 38.8"/>
    <path id="path19301" d="M138.4-245.4v7.3"/>
    <path id="path19303" d="M138.4-245.4l98-39"/>
    <path id="path19305" d="M147.4-300.4l89 16"/>
    <path id="path19307" d="M41.4-266.4l97 21"/>
    <path id="path19309" d="M41.4-266.4l106-34"/>
    <path id="path19311" d="M32.4-370.4l106-13 9 83"/>
    <path id="path19313" d="M32.4-370.4l9 104"/>
    <path d="M147.4-300.4l-106 34 97 21 98-39z" fill="#FBA0F2" id="path19315"/>
    <path fill-rule="evenodd" clip-rule="evenodd" d="M32.4-370.4l9 104 106-34-9-83zm5.5 6.3l8 89.5 95.2-30.8L133-377z" fill="#B64FC7" id="path19317"/>
    <path id="path19319" d="M236.4-284.4v7.5l-98 38.8"/>
    <path id="path19321" d="M138.4-245.4v7.3"/>
    <path id="path19323" d="M147.4-300.4l89 16"/>
    <path id="path19325" d="M41.4-266.4l97 21"/>
    <path id="path19327" d="M41.4-266.4l106-34"/>
    <path id="path19329" d="M138.4-245.4l98-39"/>
    <path id="path19331" d="M32.4-370.4l9 104"/>
    <path id="path19333" fill="#B64FC7" d="M236.4-284.4l-98 39v7.3l98-38.8z"/>
    <path style="fill:#8bdcff;fill-opacity:1" d="M45.9-274.6l-8-89.5 95-13 8.2 71.7z" id="path19335"/>
    <path style="fill:none" d="M32.4-370.4l9 104m-9-104l106-13 9 83m-115-70l-8 1.3 10.2 107.5 103.8 23.5m-97-28.3l106-34m-106 34l97 21m9-55l89 16m-98 39l98-39m-98 39v7.3m98-46.3v7.5l-98 38.8m-92.5-36.5l-8-89.5 95-13 8.2 71.7z" stroke="#000" id="path19337"/>
  </g>
  <g id="g19391" transform="matrix(-1 0 0 1 868.1 1071.6)">
    <path d="M32.4-370.4l-8 1.3 10.2 107.5 103.8 23.5" id="path19341"/>
    <path id="path19343" fill="#8BDCFF" d="M45.9-274.6l-8-89.5 95-13 8.2 71.7z"/>
    <path id="path19345" stroke="#000" d="M32.4-370.4l9 104m-9-104l106-13 9 83m-115-70l-8 1.3 10.2 107.5 103.8 23.5m-97-28.3l106-34m-106 34l97 21m9-55l89 16m-98 39l98-39m-98 39v7.3m98-46.3v7.5l-98 38.8m-92.5-36.5l-8-89.5 95-13 8.2 71.7z"/>
    <path id="path19347" fill="#9C81BD" d="M41.4-266.4l-9-104-8 1.3 10.2 107.5 103.8 23.5v-7.3z"/>
    <path d="M45.9-274.6l-8-89.5 95-13 8.2 71.7z" id="path19349"/>
    <path d="M236.4-284.4v7.5l-98 38.8" id="path19351"/>
    <path d="M138.4-245.4v7.3" id="path19353"/>
    <path d="M138.4-245.4l98-39" id="path19355"/>
    <path d="M147.4-300.4l89 16" id="path19357"/>
    <path d="M41.4-266.4l97 21" id="path19359"/>
    <path d="M41.4-266.4l106-34" id="path19361"/>
    <path d="M32.4-370.4l106-13 9 83" id="path19363"/>
    <path d="M32.4-370.4l9 104" id="path19365"/>
    <path id="path19367" fill="#FBA0F2" d="M147.4-300.4l-106 34 97 21 98-39z"/>
    <path id="path19369" fill="#B64FC7" d="M32.4-370.4l9 104 106-34-9-83zm5.5 6.3l8 89.5 95.2-30.8L133-377z" clip-rule="evenodd" fill-rule="evenodd"/>
    <path d="M236.4-284.4v7.5l-98 38.8" id="path19371"/>
    <path d="M138.4-245.4v7.3" id="path19373"/>
    <path d="M147.4-300.4l89 16" id="path19375"/>
    <path d="M41.4-266.4l97 21" id="path19377"/>
    <path d="M41.4-266.4l106-34" id="path19379"/>
    <path d="M138.4-245.4l98-39" id="path19381"/>
    <path d="M32.4-370.4l9 104" id="path19383"/>
    <path d="M236.4-284.4l-98 39v7.3l98-38.8z" fill="#B64FC7" id="path19385"/>
    <path id="path19387" d="M45.9-274.6l-8-89.5 95-13 8.2 71.7z" style="fill:#8bdcff;fill-opacity:1"/>
    <path id="path19389" stroke="#000" d="M32.4-370.4l9 104m-9-104l106-13 9 83m-115-70l-8 1.3 10.2 107.5 103.8 23.5m-97-28.3l106-34m-106 34l97 21m9-55l89 16m-98 39l98-39m-98 39v7.3m98-46.3v7.5l-98 38.8m-92.5-36.5l-8-89.5 95-13 8.2 71.7z" style="fill:none"/>
  </g>
  <path d="M1209.5 718.2l33.5-493m0 0l176.5 471m-176.5-471l120.5 637" stroke="#45403E" stroke-width="18" id="path14155"/>
  <g transform="matrix(-1 0 0 1 1308 1010.4)" id="g19476">
    <path id="path19426" d="M32.4-370.4l-8 1.3 10.2 107.5 103.8 23.5"/>
    <path d="M45.9-274.6l-8-89.5 95-13 8.2 71.7z" fill="#8BDCFF" id="path19428"/>
    <path d="M32.4-370.4l9 104m-9-104l106-13 9 83m-115-70l-8 1.3 10.2 107.5 103.8 23.5m-97-28.3l106-34m-106 34l97 21m9-55l89 16m-98 39l98-39m-98 39v7.3m98-46.3v7.5l-98 38.8m-92.5-36.5l-8-89.5 95-13 8.2 71.7z" stroke="#000" id="path19430"/>
    <path d="M41.4-266.4l-9-104-8 1.3 10.2 107.5 103.8 23.5v-7.3z" fill="#9C81BD" id="path19432"/>
    <path id="path19434" d="M45.9-274.6l-8-89.5 95-13 8.2 71.7z"/>
    <path id="path19436" d="M236.4-284.4v7.5l-98 38.8"/>
    <path id="path19438" d="M138.4-245.4v7.3"/>
    <path id="path19440" d="M138.4-245.4l98-39"/>
    <path id="path19442" d="M147.4-300.4l89 16"/>
    <path id="path19444" d="M41.4-266.4l97 21"/>
    <path id="path19446" d="M41.4-266.4l106-34"/>
    <path id="path19448" d="M32.4-370.4l106-13 9 83"/>
    <path id="path19450" d="M32.4-370.4l9 104"/>
    <path d="M147.4-300.4l-106 34 97 21 98-39z" fill="#FBA0F2" id="path19452"/>
    <path fill-rule="evenodd" clip-rule="evenodd" d="M32.4-370.4l9 104 106-34-9-83zm5.5 6.3l8 89.5 95.2-30.8L133-377z" fill="#B64FC7" id="path19454"/>
    <path id="path19456" d="M236.4-284.4v7.5l-98 38.8"/>
    <path id="path19458" d="M138.4-245.4v7.3"/>
    <path id="path19460" d="M147.4-300.4l89 16"/>
    <path id="path19462" d="M41.4-266.4l97 21"/>
    <path id="path19464" d="M41.4-266.4l106-34"/>
    <path id="path19466" d="M138.4-245.4l98-39"/>
    <path id="path19468" d="M32.4-370.4l9 104"/>
    <path id="path19470" fill="#B64FC7" d="M236.4-284.4l-98 39v7.3l98-38.8z"/>
    <path style="fill:#8bdcff;fill-opacity:1" d="M45.9-274.6l-8-89.5 95-13 8.2 71.7z" id="path19472"/>
    <path style="fill:none" d="M32.4-370.4l9 104m-9-104l106-13 9 83m-115-70l-8 1.3 10.2 107.5 103.8 23.5m-97-28.3l106-34m-106 34l97 21m9-55l89 16m-98 39l98-39m-98 39v7.3m98-46.3v7.5l-98 38.8m-92.5-36.5l-8-89.5 95-13 8.2 71.7z" stroke="#000" id="path19474"/>
  </g>
  <g id="g19528" transform="matrix(-1 0 0 1 1517.4 993.6)">
    <path d="M32.4-370.4l-8 1.3 10.2 107.5 103.8 23.5" id="path19478"/>
    <path id="path19480" fill="#8BDCFF" d="M45.9-274.6l-8-89.5 95-13 8.2 71.7z"/>
    <path id="path19482" stroke="#000" d="M32.4-370.4l9 104m-9-104l106-13 9 83m-115-70l-8 1.3 10.2 107.5 103.8 23.5m-97-28.3l106-34m-106 34l97 21m9-55l89 16m-98 39l98-39m-98 39v7.3m98-46.3v7.5l-98 38.8m-92.5-36.5l-8-89.5 95-13 8.2 71.7z"/>
    <path id="path19484" fill="#9C81BD" d="M41.4-266.4l-9-104-8 1.3 10.2 107.5 103.8 23.5v-7.3z"/>
    <path d="M45.9-274.6l-8-89.5 95-13 8.2 71.7z" id="path19486"/>
    <path d="M236.4-284.4v7.5l-98 38.8" id="path19488"/>
    <path d="M138.4-245.4v7.3" id="path19490"/>
    <path d="M138.4-245.4l98-39" id="path19492"/>
    <path d="M147.4-300.4l89 16" id="path19494"/>
    <path d="M41.4-266.4l97 21" id="path19496"/>
    <path d="M41.4-266.4l106-34" id="path19498"/>
    <path d="M32.4-370.4l106-13 9 83" id="path19500"/>
    <path d="M32.4-370.4l9 104" id="path19502"/>
    <path id="path19504" fill="#FBA0F2" d="M147.4-300.4l-106 34 97 21 98-39z"/>
    <path id="path19506" fill="#B64FC7" d="M32.4-370.4l9 104 106-34-9-83zm5.5 6.3l8 89.5 95.2-30.8L133-377z" clip-rule="evenodd" fill-rule="evenodd"/>
    <path d="M236.4-284.4v7.5l-98 38.8" id="path19508"/>
    <path d="M138.4-245.4v7.3" id="path19510"/>
    <path d="M147.4-300.4l89 16" id="path19512"/>
    <path d="M41.4-266.4l97 21" id="path19514"/>
    <path d="M41.4-266.4l106-34" id="path19516"/>
    <path d="M138.4-245.4l98-39" id="path19518"/>
    <path d="M32.4-370.4l9 104" id="path19520"/>
    <path d="M236.4-284.4l-98 39v7.3l98-38.8z" fill="#B64FC7" id="path19522"/>
    <path id="path19524" d="M45.9-274.6l-8-89.5 95-13 8.2 71.7z" style="fill:#8bdcff;fill-opacity:1"/>
    <path id="path19526" stroke="#000" d="M32.4-370.4l9 104m-9-104l106-13 9 83m-115-70l-8 1.3 10.2 107.5 103.8 23.5m-97-28.3l106-34m-106 34l97 21m9-55l89 16m-98 39l98-39m-98 39v7.3m98-46.3v7.5l-98 38.8m-92.5-36.5l-8-89.5 95-13 8.2 71.7z" style="fill:none"/>
  </g>
  <g id="g17222" transform="translate(854.7 684.4) scale(.83333)">
    <path d="M64 119.9c-28 0-58-17.5-58-55.9S36 8.1 64 8.1c15.5 0 29.8 5.1 40.4 14.4A53.5 53.5 0 0 1 122 64c0 16.9-6.1 31.2-17.6 41.4A60.6 60.6 0 0 1 64 119.9z" fill="url(#a)" id="path17212" style="fill:url(#linearGradient17224)"/>
    <path d="M64 10.1c15 0 28.9 5 39 14A51.5 51.5 0 0 1 120 64c0 16.3-5.9 30-17 39.9-10.2 9-24 14-39 14s-28.9-5-39-13.8A51.5 51.5 0 0 1 8 64c0-16.5 5.9-30.4 17-40.2a58.9 58.9 0 0 1 39-13.7m0-4C32.9 6.1 4 26.1 4 64c0 37.7 28.9 57.9 60 57.9s60-20.7 60-57.9c0-37.4-28.9-57.9-60-57.9z" fill="#EB8F00" id="path17214"/>
    <path d="M64 96.1C52 96.1 43.5 90 41 86c-1-1.6-1.5-3.4-.5-4.4 2.1-2.2 11.2 4 23.6 4 12.4 0 21.8-6 23.7-4 1 1 .4 2.8-.6 4.4-2.5 3.9-11 10.1-23 10.1z" fill="#242424" id="path17216"/>
    <path d="M82.8 41.4c4.2 0 8 3.5 8 9.4s-3.8 9.4-8 9.4-8-3.5-8-9.4 3.8-9.4 8-9.4z" fill="#242424" id="path17218"/>
    <path d="M45.2 41.4c-4.2 0-8 3.5-8 9.4s3.8 9.4 8 9.4 8-3.5 8-9.4-3.8-9.4-8-9.4z" fill="#242424" id="path17220"/>
  </g>
  <g id="g19254" transform="matrix(-1 0 0 1 1007.1 1144.3)">
    <path d="M32.4-370.4l-8 1.3 10.2 107.5 103.8 23.5" id="path19204"/>
    <path id="path19206" fill="#8BDCFF" d="M45.9-274.6l-8-89.5 95-13 8.2 71.7z"/>
    <path id="path19208" stroke="#000" d="M32.4-370.4l9 104m-9-104l106-13 9 83m-115-70l-8 1.3 10.2 107.5 103.8 23.5m-97-28.3l106-34m-106 34l97 21m9-55l89 16m-98 39l98-39m-98 39v7.3m98-46.3v7.5l-98 38.8m-92.5-36.5l-8-89.5 95-13 8.2 71.7z"/>
    <path id="path19210" fill="#9C81BD" d="M41.4-266.4l-9-104-8 1.3 10.2 107.5 103.8 23.5v-7.3z"/>
    <path d="M45.9-274.6l-8-89.5 95-13 8.2 71.7z" id="path19212"/>
    <path d="M236.4-284.4v7.5l-98 38.8" id="path19214"/>
    <path d="M138.4-245.4v7.3" id="path19216"/>
    <path d="M138.4-245.4l98-39" id="path19218"/>
    <path d="M147.4-300.4l89 16" id="path19220"/>
    <path d="M41.4-266.4l97 21" id="path19222"/>
    <path d="M41.4-266.4l106-34" id="path19224"/>
    <path d="M32.4-370.4l106-13 9 83" id="path19226"/>
    <path d="M32.4-370.4l9 104" id="path19228"/>
    <path id="path19230" fill="#FBA0F2" d="M147.4-300.4l-106 34 97 21 98-39z"/>
    <path id="path19232" fill="#B64FC7" d="M32.4-370.4l9 104 106-34-9-83zm5.5 6.3l8 89.5 95.2-30.8L133-377z" clip-rule="evenodd" fill-rule="evenodd"/>
    <path d="M236.4-284.4v7.5l-98 38.8" id="path19234"/>
    <path d="M138.4-245.4v7.3" id="path19236"/>
    <path d="M147.4-300.4l89 16" id="path19238"/>
    <path d="M41.4-266.4l97 21" id="path19240"/>
    <path d="M41.4-266.4l106-34" id="path19242"/>
    <path d="M138.4-245.4l98-39" id="path19244"/>
    <path d="M32.4-370.4l9 104" id="path19246"/>
    <path d="M236.4-284.4l-98 39v7.3l98-38.8z" fill="#B64FC7" id="path19248"/>
    <path id="path19250" d="M45.9-274.6l-8-89.5 95-13 8.2 71.7z" style="fill:#8bdcff;fill-opacity:1"/>
    <path id="path19252" stroke="#000" d="M32.4-370.4l9 104m-9-104l106-13 9 83m-115-70l-8 1.3 10.2 107.5 103.8 23.5m-97-28.3l106-34m-106 34l97 21m9-55l89 16m-98 39l98-39m-98 39v7.3m98-46.3v7.5l-98 38.8m-92.5-36.5l-8-89.5 95-13 8.2 71.7z" style="fill:none"/>
  </g>
  <path d="M213.4 1022.5v-71h21.8a33 33 0 0 1 16.8 4.2c5 2.8 8.8 6.8 11.6 12 2.7 5.1 4.1 11 4.1 17.6v3.3a37 37 0 0 1-4 17.6 29 29 0 0 1-11.6 12c-5 2.8-10.5 4.3-16.7 4.3h-22zm14.6-59.2v47.4h7.1c5.7 0 10.1-1.8 13.1-5.6 3-3.7 4.6-9 4.7-16v-3.8c0-7.2-1.5-12.7-4.5-16.4-3-3.8-7.4-5.6-13.2-5.6H228zm73.8 60.2a26 26 0 0 1-19-7.1c-4.8-4.8-7.2-11.1-7.2-19V996c0-5.3 1-10 3-14.2 2.1-4.2 5-7.4 8.7-9.7 3.8-2.3 8.1-3.4 13-3.4 7.2 0 12.8 2.3 17 6.8 4.1 4.6 6.2 11 6.2 19.4v5.8H290c.4 3.4 1.8 6.2 4 8.3 2.4 2 5.3 3.1 8.8 3.1 5.5 0 9.7-2 12.8-6l6.9 7.9c-2.1 3-5 5.3-8.6 7a28.4 28.4 0 0 1-12 2.5zm-1.6-43.4a9 9 0 0 0-6.8 2.8 14.7 14.7 0 0 0-3.4 8.2h19.7v-1.2c-.1-3-1-5.5-2.6-7.2-1.6-1.7-4-2.6-7-2.6zm53.4 32c2.6 0 4.7-.7 6.3-2.1a7.5 7.5 0 0 0 2.5-5.8h13.3c0 3.6-1 7-3 9.9-1.9 3-4.5 5.3-7.9 7-3.3 1.6-7 2.4-11 2.4a23 23 0 0 1-17.9-7.2 28.6 28.6 0 0 1-6.5-20v-.9c0-8 2.1-14.6 6.5-19.4a22.7 22.7 0 0 1 17.8-7.3 22 22 0 0 1 15.9 5.7c4 3.7 6 8.7 6 15h-13.2c0-2.8-.9-5-2.5-6.7a8.4 8.4 0 0 0-6.4-2.6 8.5 8.5 0 0 0-7.5 3.6c-1.7 2.4-2.5 6.3-2.5 11.7v1.4c0 5.5.8 9.4 2.5 11.7 1.6 2.4 4.2 3.6 7.6 3.6zm54.4 11.4a26 26 0 0 1-18.9-7.1c-4.8-4.8-7.3-11.1-7.3-19V996c0-5.3 1-10 3.1-14.2 2-4.2 5-7.4 8.7-9.7 3.8-2.3 8-3.4 12.9-3.4 7.2 0 12.9 2.3 17 6.8 4.2 4.6 6.3 11 6.3 19.4v5.8H396c.5 3.4 1.9 6.2 4.1 8.3 2.3 2 5.3 3.1 8.8 3.1 5.4 0 9.7-2 12.7-6l7 7.9c-2.2 3-5 5.3-8.6 7a28.4 28.4 0 0 1-12 2.5zm-1.6-43.4a9 9 0 0 0-6.8 2.8 14.7 14.7 0 0 0-3.3 8.2h19.6v-1.2c0-3-.9-5.5-2.5-7.2-1.7-1.7-4-2.6-7-2.6zm44.4-10.4l.5 6c3.7-4.6 8.8-7 15.1-7 5.6 0 9.8 1.6 12.5 5 2.8 3.2 4.2 8.1 4.2 14.7v34.1h-14v-33.8c0-3-.7-5.1-2-6.5-1.3-1.4-3.5-2-6.5-2-4 0-7 1.7-9 5v37.3h-14v-52.8h13.2zm60-13v13h9V980h-9v26.4c0 2 .4 3.3 1.1 4.2.8.8 2.2 1.3 4.3 1.3 1.6 0 3-.2 4.2-.4v10.7c-2.8.8-5.7 1.3-8.6 1.3-9.9 0-15-5-15.1-15V980H489v-10.3h7.7v-13h14zm46.6 26.2c-2-.3-3.6-.4-5.1-.4-5.4 0-8.9 1.8-10.5 5.4v34.6h-14.1v-52.8H541l.4 6.3c2.8-4.9 6.8-7.3 11.8-7.3 1.5 0 3 .2 4.4.6l-.2 13.6zm36 39.6c-.7-1.3-1.2-2.9-1.5-4.7a17 17 0 0 1-13.3 5.7c-5.2 0-9.5-1.5-12.9-4.5-3.4-3-5-6.8-5-11.3 0-5.6 2-10 6.1-13 4.2-3 10.2-4.4 18-4.5h6.5v-3c0-2.4-.6-4.4-1.9-5.9-1.2-1.4-3.2-2.2-5.9-2.2-2.3 0-4.2.6-5.6 1.7a5.8 5.8 0 0 0-2 4.7h-14c0-3 .9-5.9 2.7-8.5 2-2.6 4.6-4.6 8-6a29 29 0 0 1 11.7-2.3c6.5 0 11.6 1.6 15.4 5a17 17 0 0 1 5.8 13.7v22.9c0 5 .7 8.8 2.1 11.4v.8h-14.3zm-11.7-9.8c2 0 4-.5 5.7-1.4 1.8-1 3.1-2.2 4-3.7v-9.1H586c-7 0-10.8 2.4-11.3 7.3v.8c0 1.8.6 3.2 1.8 4.4 1.2 1.1 3 1.7 5 1.7zm49.5 9.8h-14.1v-75h14.1v75zm26.6 0h-14.2v-52.8h14.2v52.8zm-15-66.5a7 7 0 0 1 2.1-5.2 8 8 0 0 1 5.8-2 8 8 0 0 1 5.8 2 7 7 0 0 1 2.1 5.2c0 2.1-.7 3.9-2.2 5.3a8 8 0 0 1-5.7 2c-2.4 0-4.3-.7-5.7-2a7 7 0 0 1-2.2-5.3zm42.9 55.1h25.8v11.4h-43.8v-8.6l24.8-32.8h-24.1v-11.4h42.3v8.3l-25 33.1zm58.2 12.4a26 26 0 0 1-19-7.1c-4.8-4.8-7.2-11.1-7.2-19V996c0-5.3 1-10 3-14.2 2-4.2 5-7.4 8.7-9.7 3.8-2.3 8.1-3.4 13-3.4 7.2 0 12.8 2.3 17 6.8 4.1 4.6 6.2 11 6.2 19.4v5.8H732c.4 3.4 1.8 6.2 4 8.3 2.4 2 5.3 3.1 8.8 3.1 5.5 0 9.7-2 12.8-6l6.9 7.9c-2.1 3-5 5.3-8.6 7a28.4 28.4 0 0 1-12 2.5zm-1.6-43.4a9 9 0 0 0-6.9 2.8 14.7 14.7 0 0 0-3.3 8.2h19.6v-1.2c0-3-.9-5.5-2.5-7.2-1.6-1.7-4-2.6-7-2.6zm29.2 15.6A32 32 0 0 1 777 976a18 18 0 0 1 15.2-7.3c5.1 0 9.4 2 12.7 5.8v-27h14.2v75h-12.8l-.6-5.6c-3.6 4.4-8 6.6-13.6 6.6a18 18 0 0 1-15-7.4 33 33 0 0 1-5.6-20.4zm14 1c0 5 1 8.8 2.7 11.4 1.7 2.6 4.2 4 7.5 4 4.4 0 7.4-1.9 9.2-5.6v-20.8c-1.7-3.7-4.8-5.5-9.1-5.5-6.8 0-10.2 5.5-10.2 16.5zm73.9 31.9h-10.5l26.1-77.2h10.5l-26.1 77.2zm101.5-35.2h-28.1v29.1h-14.6v-71h46.2v11.8h-31.6v18.3h28.1v11.8zm34.4 30a26 26 0 0 1-19-7c-4.8-4.8-7.3-11.1-7.3-19V996c0-5.3 1-10 3.1-14.2 2-4.2 5-7.4 8.7-9.7 3.8-2.3 8-3.4 12.9-3.4 7.2 0 12.9 2.3 17 6.8 4.2 4.6 6.3 11 6.3 19.4v5.8h-33.7c.5 3.4 1.9 6.2 4.1 8.3 2.4 2 5.3 3.1 8.8 3.1 5.4 0 9.7-2 12.7-6l7 7.9c-2.2 3-5 5.3-8.6 7a28.5 28.5 0 0 1-12 2.5zm-1.7-43.3a9 9 0 0 0-6.8 2.8 14.7 14.7 0 0 0-3.3 8.2h19.6v-1.2c0-3-.9-5.5-2.5-7.2-1.7-1.7-4-2.6-7-2.6zm29.2 15.6a32 32 0 0 1 5.6-19.7 18 18 0 0 1 15.1-7.3c5.2 0 9.4 2 12.8 5.8v-27h14.2v75h-12.8l-.7-5.6c-3.5 4.4-8 6.6-13.5 6.6a18 18 0 0 1-15-7.4 33 33 0 0 1-5.7-20.4zm14.2 1c0 5 .8 8.8 2.5 11.4 1.8 2.6 4.3 4 7.6 4 4.3 0 7.4-1.9 9.2-5.6v-20.8c-1.8-3.7-4.8-5.5-9.1-5.5-6.9 0-10.3 5.5-10.3 16.5zm68.7 26.8a26 26 0 0 1-19-7.1c-4.8-4.8-7.2-11.1-7.2-19V996c0-5.3 1-10 3-14.2 2.1-4.2 5-7.4 8.8-9.7 3.7-2.3 8-3.4 12.8-3.4 7.3 0 13 2.3 17 6.8 4.3 4.6 6.3 11 6.3 19.4v5.8h-33.6c.4 3.4 1.8 6.2 4 8.3 2.4 2 5.3 3.1 8.8 3.1 5.5 0 9.7-2 12.8-6l7 7.9c-2.2 3-5 5.3-8.7 7a28.4 28.4 0 0 1-12 2.5zm-1.6-43.4c-2.8 0-5 1-6.8 2.8a14.6 14.6 0 0 0-3.4 8.2h19.7v-1.2c-.1-3-1-5.5-2.6-7.2-1.6-1.7-4-2.6-7-2.6zm61 2.8c-1.8-.3-3.5-.4-5-.4-5.3 0-8.8 1.8-10.5 5.4v34.6h-14.1v-52.8h13.3l.4 6.3c2.8-4.9 6.8-7.3 11.8-7.3 1.5 0 3 .2 4.4.6l-.2 13.6zm36 39.6c-.6-1.3-1-2.9-1.3-4.7a17 17 0 0 1-13.4 5.7c-5.2 0-9.5-1.5-12.9-4.5-3.4-3-5-6.8-5-11.3 0-5.6 2-10 6.2-13 4.1-3 10.1-4.4 18-4.5h6.5v-3c0-2.4-.7-4.4-2-5.9-1.2-1.4-3.2-2.2-5.9-2.2-2.3 0-4.2.6-5.6 1.7a5.9 5.9 0 0 0-2 4.7h-14c0-3 .9-5.9 2.8-8.5 1.8-2.6 4.5-4.6 8-6 3.4-1.6 7.3-2.3 11.6-2.3 6.5 0 11.7 1.6 15.5 5a17 17 0 0 1 5.7 13.7v22.9c0 5 .8 8.8 2.1 11.4v.8h-14.2zm-11.6-9.8c2 0 4-.5 5.8-1.4 1.7-1 3-2.2 3.9-3.7v-9.1h-5.3c-7 0-10.8 2.4-11.3 7.3v.8c0 1.8.6 3.2 1.8 4.4 1.3 1.1 3 1.7 5 1.7zm51.5-56v13h9V980h-9v26.4c0 2 .4 3.3 1.2 4.2.7.8 2.2 1.3 4.3 1.3 1.5 0 3-.2 4.1-.4v10.7c-2.7.8-5.6 1.3-8.5 1.3-10 0-15-5-15.2-15V980h-7.7v-10.3h7.7v-13h14.1zm41.3 66.8a26 26 0 0 1-19-7.1c-4.8-4.8-7.3-11.1-7.3-19V996c0-5.3 1-10 3.1-14.2 2-4.2 5-7.4 8.7-9.7 3.8-2.3 8-3.4 12.9-3.4 7.2 0 13 2.3 17 6.8 4.2 4.6 6.3 11 6.3 19.4v5.8h-33.7c.5 3.4 1.9 6.2 4.2 8.3 2.3 2 5.2 3.1 8.7 3.1 5.4 0 9.7-2 12.7-6l7 7.9c-2.1 3-5 5.3-8.6 7a28.5 28.5 0 0 1-12 2.5zm-1.6-43.4c-2.9 0-5.1 1-6.9 2.8a14.7 14.7 0 0 0-3.3 8.2h19.6v-1.2c0-3-.9-5.5-2.5-7.2-1.6-1.7-4-2.6-7-2.6zm29.1 15.6a32 32 0 0 1 5.6-19.7 18 18 0 0 1 15.2-7.3c5.1 0 9.4 2 12.7 5.8v-27h14.2v75h-12.8l-.7-5.6c-3.5 4.4-8 6.6-13.5 6.6a18 18 0 0 1-15-7.4 33 33 0 0 1-5.7-20.4zm14.2 1c0 5 .8 8.8 2.5 11.4 1.8 2.6 4.3 4 7.6 4 4.3 0 7.4-1.9 9.2-5.6v-20.8c-1.8-3.7-4.8-5.5-9.1-5.5-6.8 0-10.2 5.5-10.2 16.5z" fill="#38679D" id="path14323"/>
  <path d="M505.5 1094.8c0-5.1.7-10 2-14.8 1.4-4.8 3.5-9 6.2-13 2.8-3.8 5.6-6.6 8.5-8.2l1.3 4.2c-3.3 2.6-6 6.5-8.2 11.7a51 51 0 0 0-3.5 17.6v3a51 51 0 0 0 4.8 22.8c2 3.9 4.3 7 7 9.1l-1.4 3.9a27 27 0 0 1-8.7-8.5c-5.3-7.8-8-17-8-27.8zm53.3-2.8h-21.6v17.6h25v5.4h-31.6v-49.8H562v5.4h-24.7v16h21.6v5.4zm16.6-14l.1 4.1c2.8-3.2 6.4-4.8 11-4.8 5.2 0 8.7 2 10.6 6 1.2-1.8 2.8-3.2 4.8-4.3 2-1.1 4.3-1.7 7-1.7 8 0 12.2 4.3 12.3 13v24.7H615v-24.4c0-2.6-.6-4.6-1.8-6-1.2-1.2-3.2-1.9-6-1.9-2.4 0-4.4.7-6 2.1a8.5 8.5 0 0 0-2.6 5.7v24.5H592v-24.2c0-5.4-2.6-8.1-7.9-8.1-4.1 0-7 1.8-8.5 5.3v27h-6.3v-37h6zm78.2 37c-.3-.7-.6-2-.8-3.9a14 14 0 0 1-10.6 4.6c-3.6 0-6.6-1-9-3-2.3-2.2-3.4-4.8-3.4-8 0-3.8 1.4-6.8 4.3-9 3-2 7.1-3.1 12.4-3.1h6.2v-3a7 7 0 0 0-2-5.2c-1.3-1.3-3.3-2-5.9-2-2.2 0-4.1.6-5.6 1.7-1.6 1.2-2.3 2.6-2.3 4.2h-6.4c0-1.9.7-3.6 2-5.4 1.3-1.7 3-3 5.3-4 2.2-1 4.7-1.6 7.4-1.6 4.3 0 7.6 1.1 10 3.3 2.4 2 3.7 5 3.8 8.7v17c0 3.5.4 6.2 1.3 8.2v.5h-6.7zm-10.4-4.8c2 0 3.8-.5 5.6-1.6 1.8-1 3-2.3 3.9-4v-7.5h-5c-7.7 0-11.6 2.2-11.6 6.8 0 2 .6 3.5 2 4.6 1.3 1.1 3 1.7 5 1.7zm32.6 4.8h-6.4v-37h6.4v37zm-6.9-46.8c0-1 .3-1.9 1-2.6.6-.7 1.5-1 2.8-1 1.2 0 2.1.3 2.8 1 .6.7 1 1.6 1 2.6s-.4 1.9-1 2.6c-.7.7-1.6 1-2.8 1-1.3 0-2.2-.3-2.9-1-.6-.7-.9-1.6-.9-2.6zm23.9 46.8h-6.3v-52.5h6.3v52.5zm10 10l-3.7-2.5c2.2-3 3.3-6.1 3.4-9.3v-5.7h6.2v5c0 2.3-.6 4.6-1.7 6.9a16 16 0 0 1-4.3 5.5zm40.7-59.8l16.3 40.6 16.2-40.6h8.6v49.8H778v-19.4l.6-20.9-16.3 40.3h-5l-16.4-40.2.7 20.8v19.4H735v-49.8h8.5zM818 1115c-.4-.7-.7-2-.9-3.9a14 14 0 0 1-10.5 4.6c-3.7 0-6.7-1-9-3-2.3-2.2-3.5-4.8-3.5-8 0-3.8 1.4-6.8 4.4-9 3-2 7-3.1 12.3-3.1h6.2v-3a7 7 0 0 0-2-5.2c-1.3-1.3-3.3-2-5.8-2-2.3 0-4.2.6-5.7 1.7-1.5 1.2-2.3 2.6-2.3 4.2h-6.4c0-1.9.7-3.6 2-5.4 1.3-1.7 3-3 5.3-4s4.8-1.6 7.4-1.6c4.3 0 7.6 1.1 10 3.3 2.5 2 3.7 5 3.8 8.7v17c0 3.5.4 6.2 1.3 8.2v.5H818zm-10.5-4.8c2 0 3.9-.5 5.6-1.6 1.8-1 3.1-2.3 3.9-4v-7.5h-5c-7.7 0-11.6 2.2-11.6 6.8 0 2 .7 3.5 2 4.6 1.3 1.1 3 1.7 5 1.7zm47.3-5c0-1.7-.7-3-2-4s-3.5-1.8-6.7-2.4c-3.2-.7-5.8-1.5-7.6-2.5a11 11 0 0 1-4.2-3.4 8.3 8.3 0 0 1-1.3-4.7c0-3 1.2-5.6 3.8-7.7a15 15 0 0 1 9.8-3.2c4.2 0 7.6 1.1 10.2 3.3 2.6 2.2 4 5 4 8.3h-6.4c0-1.8-.8-3.2-2.2-4.5a8.2 8.2 0 0 0-5.6-1.9c-2.3 0-4 .5-5.4 1.5-1.3 1-2 2.3-2 4 0 1.5.7 2.6 1.9 3.4 1.2.8 3.4 1.5 6.5 2.2 3.2.7 5.7 1.6 7.7 2.6s3.4 2.1 4.3 3.5c1 1.4 1.5 3 1.5 5 0 3.3-1.3 6-4 8-2.6 2-6 3-10.3 3-3 0-5.6-.5-7.8-1.6a13 13 0 0 1-5.4-4.4c-1.3-1.9-2-3.9-2-6h6.4c.1 2 1 3.7 2.5 5a10 10 0 0 0 6.3 1.8c2.4 0 4.3-.5 5.8-1.4 1.4-1 2.2-2.3 2.2-4zm23.1-36.1v9h6.9v4.8h-6.9v23c0 1.4.3 2.5 1 3.3.5.7 1.6 1 3 1 .8 0 1.8 0 3-.3v5.1c-1.6.5-3.2.7-4.8.7-2.8 0-5-.9-6.4-2.6a11 11 0 0 1-2.1-7.3V1083h-6.8v-4.9h6.8v-9h6.3zm12 27c0-3.6.7-6.8 2-9.7 1.5-2.9 3.5-5.1 6-6.7 2.6-1.6 5.5-2.4 8.7-2.4 5 0 9.1 1.8 12.2 5.3a20 20 0 0 1 4.7 13.9v.4a22 22 0 0 1-2 9.7 15.6 15.6 0 0 1-14.8 9c-5 0-9-1.7-12.2-5.1a20 20 0 0 1-4.6-13.9v-.4zm6.3.8c0 4.1 1 7.4 2.9 9.9s4.4 3.7 7.6 3.7a9 9 0 0 0 7.7-3.7c1.9-2.6 2.8-6.1 2.8-10.6 0-4-1-7.4-2.9-9.9a9.1 9.1 0 0 0-7.7-3.8 9 9 0 0 0-7.5 3.8c-2 2.4-2.9 6-2.9 10.6zm33.7-.7c0-5.7 1.4-10.2 4-13.7 2.7-3.4 6.3-5.2 10.6-5.2s7.8 1.5 10.3 4.5v-19.3h6.3v52.5h-5.8l-.3-4c-2.5 3.1-6 4.7-10.6 4.7-4.2 0-7.7-1.8-10.4-5.3a22 22 0 0 1-4-13.7v-.5zm6.3.7c0 4.2 1 7.5 2.6 9.9a8.4 8.4 0 0 0 7.2 3.5c4 0 7-1.8 8.8-5.4v-17a9.3 9.3 0 0 0-8.7-5.2 8.4 8.4 0 0 0-7.3 3.6 18 18 0 0 0-2.6 10.6zm33.1-.7c0-3.7.7-7 2.1-9.8 1.5-2.9 3.4-5.1 6-6.7 2.5-1.6 5.4-2.4 8.7-2.4 5 0 9 1.8 12.2 5.3 3.1 3.5 4.7 8 4.7 13.9v.4a22 22 0 0 1-2.1 9.7 15.6 15.6 0 0 1-14.8 9c-5 0-9-1.7-12.2-5.1a20 20 0 0 1-4.6-13.9v-.4zm6.4.7c0 4.1.9 7.4 2.8 9.9s4.5 3.7 7.6 3.7a9 9 0 0 0 7.7-3.7c1.9-2.6 2.8-6.1 2.8-10.6 0-4-1-7.4-2.9-9.9a9.1 9.1 0 0 0-7.6-3.8 9 9 0 0 0-7.6 3.8c-1.9 2.4-2.8 6-2.8 10.6zm41.2-18.9l.2 4.7c2.8-3.6 6.5-5.4 11-5.4 7.9 0 11.8 4.4 11.9 13.3v24.4h-6.3v-24.5c0-2.6-.7-4.6-1.9-5.9-1.2-1.3-3-1.9-5.6-1.9-2 0-3.8.5-5.4 1.6a11 11 0 0 0-3.6 4.4v26.3h-6.3v-37h6zm47.2 17.1c0 5.1-.7 10-2 14.7-1.3 4.6-3.4 9-6.1 12.9-2.8 3.9-5.6 6.7-8.6 8.4l-1.4-3.9c3.5-2.7 6.3-6.9 8.5-12.5a54 54 0 0 0 3.3-18.9v-1c0-4.8-.5-9.3-1.5-13.4s-2.5-7.8-4.3-11a25.4 25.4 0 0 0-6-7.7l1.4-3.9c3 1.7 5.8 4.5 8.5 8.4 2.8 3.9 4.8 8.2 6.2 12.9 1.3 4.7 2 9.7 2 15z" fill="#38679D" id="path14325"/>
  <path d="M1283.5 117.2l-13.3 169.5 50.3-7.5-9-118.8-28-43.2z" fill="#7A5A4C" id="path14339"/>
  <path d="M1270.3 286.7l-122.8-7.5 57-150 79-12m-13.3 169.5l13.3-169.5m-13.3 169.5l50.3-7.5-9-118.8-28-43.2" stroke="#000" stroke-width="2" id="path14341"/>
  <path d="M1147.5 279.2l122.8 7.5 13.2-169.5-79 12-57 150z" fill="#B7A873" id="path14343"/>
  <path d="M1270.3 286.7l-122.8-7.5 57-150 79-12m-13.3 169.5l13.3-169.5m-13.3 169.5l50.3-7.5-9-118.8-28-43.2" stroke="#000" stroke-width="2" id="path14345"/>
  <path d="M1199.3 162.4a47.7 47.7 0 0 1 73-3.5c-22.8 19-58.3 21.8-73 3.5z" fill="#fff" stroke="#000" stroke-width="2" id="path14347"/>
  <path d="M1247.8 172c-9.4 2.8-19 3.5-27.6 2 5.3-15.9 24-16.6 27.6-2z" fill="#5E9A42" id="path14349"/>
  <path d="M1247.8 172c8.7-2.6 17.2-7 24.5-13a47.7 47.7 0 0 0-73 3.4 34 34 0 0 0 20.9 11.6m27.6-2c-9.4 2.8-19 3.5-27.6 2m27.6-2c-3.7-14.6-22.3-13.9-27.6 2" stroke="#000" stroke-width="2" id="path14351"/>
  <path d="M292.6 151.3l18.3 234-69.4-10.4 12.4-164 38.7-59.7z" fill="#6C6462" id="path14355"/>
  <path d="M311 385.3l169.5-10.4-78.7-207-109.2-16.7m18.3 234l-18.3-234m18.3 234L241.5 375l12.4-164 38.7-59.7" stroke="#000" stroke-width="2" id="path14357"/>
  <path d="M480.5 374.9l-169.6 10.4-18.3-234 109.2 16.5L480.5 375z" fill="#A9A2A2" id="path14359"/>
  <path d="M311 385.3l169.5-10.4-78.7-207-109.2-16.7m18.3 234l-18.3-234m18.3 234L241.5 375l12.4-164 38.7-59.7" stroke="#000" stroke-width="2" id="path14361"/>
  <path d="M409 213.7a65.9 65.9 0 0 0-100.8-4.8c31.4 26.2 80.4 30 100.8 4.8z" fill="#fff" stroke="#000" stroke-width="2" id="path14363"/>
  <path d="M342 226.9c13 3.9 26.3 4.9 38 2.7-7.3-21.9-33-22.8-38-2.7z" fill="#9A4242" id="path14365"/>
  <path d="M342 226.9a95.8 95.8 0 0 1-33.8-18 65.9 65.9 0 0 1 100.8 4.8 47 47 0 0 1-29 16m-38-2.8c13 3.9 26.3 4.9 38 2.7m-38-2.7c5-20 30.7-19.2 38 2.7" stroke="#000" stroke-width="2" id="path14367"/>
  <path d="M873.8 300.5L860.5 470l50.3-7.5-9-118.8-28-43.2z" fill="#3B6A51" id="path14369"/>
  <path d="M860.5 470l-122.8-7.5 57-150 79-12M860.5 470l13.3-169.5M860.5 470l50.3-7.5-9-118.8-28-43.2" stroke="#000" stroke-width="2" id="path14371"/>
  <path d="M737.8 462.5l122.7 7.5 13.3-169.5-79 12-57 150z" fill="#74B773" id="path14373"/>
  <path d="M860.5 470l-122.8-7.5 57-150 79-12M860.5 470l13.3-169.5M860.5 470l50.3-7.5-9-118.8-28-43.2" stroke="#000" stroke-width="2" id="path14375"/>
  <path d="M789.5 345.8a47.7 47.7 0 0 1 73-3.6c-22.8 19-58.3 21.8-73 3.6z" fill="#fff" stroke="#000" stroke-width="2" id="path14377"/>
  <path d="M838 355.3c-9.4 2.8-19 3.5-27.5 2 5.3-15.9 23.9-16.6 27.5-2z" fill="#8E429A" id="path14379"/>
  <path d="M838 355.3c8.8-2.6 17.3-7 24.5-13a47.7 47.7 0 0 0-73 3.4 34 34 0 0 0 21 11.6m27.5-2c-9.4 2.8-19 3.5-27.5 2m27.5-2c-3.6-14.6-22.2-13.9-27.5 2" stroke="#000" stroke-width="2" id="path14381"/>
  <defs id="defs14437">
    <pattern id="pattern0" patternContentUnits="objectBoundingBox" width="1" height="1">
      <use xlink:href="#image0" transform="scale(.01563)" id="use14391"/>
    </pattern>
    <pattern id="pattern1" patternContentUnits="objectBoundingBox" width="1" height="1">
      <use xlink:href="#image0" transform="scale(.01563)" id="use14394"/>
    </pattern>
    <pattern id="pattern2" patternContentUnits="objectBoundingBox" width="1" height="1">
      <use xlink:href="#image0" transform="scale(.01563)" id="use14397"/>
    </pattern>
    <pattern id="pattern3" patternContentUnits="objectBoundingBox" width="1" height="1">
      <use xlink:href="#image0" transform="scale(.01563)" id="use14400"/>
    </pattern>
    <pattern id="pattern4" patternContentUnits="objectBoundingBox" width="1" height="1">
      <use xlink:href="#image1" transform="scale(.01563)" id="use14403"/>
    </pattern>
    <pattern id="pattern5" patternContentUnits="objectBoundingBox" width="1" height="1">
      <use xlink:href="#image2" transform="scale(.01563)" id="use14406"/>
    </pattern>
    <pattern id="pattern6" patternContentUnits="objectBoundingBox" width="1" height="1">
      <use xlink:href="#image2" transform="scale(.01563)" id="use14409"/>
    </pattern>
    <pattern id="pattern7" patternContentUnits="objectBoundingBox" width="1" height="1">
      <use xlink:href="#image2" transform="scale(.01563)" id="use14412"/>
    </pattern>
    <pattern id="pattern8" patternContentUnits="objectBoundingBox" width="1" height="1">
      <use xlink:href="#image3" transform="scale(.01563)" id="use14415"/>
    </pattern>
    <pattern id="pattern9" patternContentUnits="objectBoundingBox" width="1" height="1">
      <use xlink:href="#image0" transform="scale(.01563)" id="use14418"/>
    </pattern>
    <pattern id="pattern10" patternContentUnits="objectBoundingBox" width="1" height="1">
      <use xlink:href="#image4" transform="scale(.01563)" id="use14421"/>
    </pattern>
    <pattern id="pattern11" patternContentUnits="objectBoundingBox" width="1" height="1">
      <use xlink:href="#image5" transform="scale(.01563)" id="use14424"/>
    </pattern>
    <pattern id="pattern12" patternContentUnits="objectBoundingBox" width="1" height="1">
      <use xlink:href="#image6" transform="scale(.01563)" id="use14427"/>
    </pattern>
    <linearGradient xlink:href="#a-6" id="linear-gradient5381" gradientUnits="userSpaceOnUse" x1="64" y1="19.7" x2="64" y2="107.7"/>
    <linearGradient gradientUnits="userSpaceOnUse" y2="107.7" y1="19.7" x2="64" x1="64" id="a-6">
      <stop id="stop4691" offset=".5" stop-color="#FEE133"/>
      <stop id="stop4693" offset=".6" stop-color="#FEDE32"/>
      <stop id="stop4695" offset=".7" stop-color="#FCD32F"/>
      <stop id="stop4697" offset=".8" stop-color="#FAC12B"/>
      <stop id="stop4699" offset=".9" stop-color="#F7A924"/>
      <stop id="stop4701" offset=".9" stop-color="#F6A323"/>
    </linearGradient>
    <linearGradient gradientUnits="userSpaceOnUse" y2="32.2" y1="95.9" x2="63.9" x1="63.9" id="green-gradient">
      <stop id="stop15821" offset="0" stop-color="#43A047"/>
      <stop id="stop15823" offset="1" stop-color="#66BB6A"/>
    </linearGradient>
    <linearGradient gradientUnits="userSpaceOnUse" y2="4" y1="124" x2="63.9" x1="63.9" id="b">
      <stop id="stop3938" offset="0" stop-color="#FFB74D"/>
      <stop id="stop3940" offset="1" stop-color="#FFE0B2"/>
    </linearGradient>
    <linearGradient gradientUnits="userSpaceOnUse" gradientTransform="translate(-1)" y2="93.1" y1="93.1" x2="97.6" x1="5.7" id="b-7">
      <stop id="stop10337" offset="0" stop-color="#eee"/>
      <stop id="stop10339" offset="1" stop-color="#BDBDBD"/>
    </linearGradient>
    <radialGradient gradientUnits="userSpaceOnUse" gradientTransform="matrix(.9896 0 0 1.0031 0 -.1)" r="59.8" cy="46.4" cx="32" id="a-0">
      <stop id="stop10344" offset="0" stop-color="#81D4FA"/>
      <stop id="stop10346" offset="1" stop-color="#1B99DE"/>
    </radialGradient>
    <linearGradient gradientUnits="userSpaceOnUse" y2="61" y1="5" x2="47" x1="20.4" id="f">
      <stop id="stop11103" offset=".3" stop-color="#fff"/>
      <stop id="stop11105" offset=".4" stop-color="#F2F2F2"/>
      <stop id="stop11107" offset=".6" stop-color="#CFCFCF"/>
      <stop id="stop11109" offset=".9" stop-color="#989898"/>
      <stop id="stop11111" offset="1" stop-color="#878787"/>
    </linearGradient>
    <linearGradient gradientUnits="userSpaceOnUse" y2="49.1" y1="21.5" x2="41.3" x1="28.3" id="e-9">
      <stop id="stop11118" offset=".2" stop-color="#FF87A8"/>
      <stop id="stop11120" offset=".3" stop-color="#F87C9F"/>
      <stop id="stop11122" offset="1" stop-color="#D94874"/>
    </linearGradient>
    <linearGradient gradientUnits="userSpaceOnUse" gradientTransform="matrix(-1 0 0 1 175.4 0)" y2="61" y1="5" x2="94.4" x1="67.8" id="d-3">
      <stop id="stop11127" offset=".3" stop-color="#fff"/>
      <stop id="stop11129" offset=".4" stop-color="#F2F2F2"/>
      <stop id="stop11131" offset=".6" stop-color="#CFCFCF"/>
      <stop id="stop11133" offset=".9" stop-color="#989898"/>
      <stop id="stop11135" offset="1" stop-color="#878787"/>
    </linearGradient>
    <linearGradient gradientUnits="userSpaceOnUse" gradientTransform="matrix(-1 0 0 1 175.4 0)" y2="49.1" y1="21.5" x2="88.8" x1="75.7" id="c-6">
      <stop id="stop11142" offset=".2" stop-color="#FF87A8"/>
      <stop id="stop11144" offset=".3" stop-color="#F87C9F"/>
      <stop id="stop11146" offset="1" stop-color="#D94874"/>
    </linearGradient>
    <linearGradient gradientUnits="userSpaceOnUse" y2="47.5" y1="122.1" x2="64" x1="64" id="b-0">
      <stop id="stop11151" offset="0" stop-color="#D4D4D4"/>
      <stop id="stop11153" offset=".3" stop-color="#E3E3E3"/>
      <stop id="stop11155" offset=".7" stop-color="#fff"/>
    </linearGradient>
    <linearGradient gradientUnits="userSpaceOnUse" y2="99.9" y1="89.3" x2="64" x1="64" id="a-6-6">
      <stop id="stop11170" offset=".2" stop-color="#FF87A8"/>
      <stop id="stop11172" offset=".7" stop-color="#FF6492"/>
      <stop id="stop11174" offset="1" stop-color="#FF5589"/>
    </linearGradient>
    <linearGradient xlink:href="#a-6" id="linear-gradient9805" gradientUnits="userSpaceOnUse" x1="64" y1="19.7" x2="64" y2="107.7"/>
    <linearGradient xlink:href="#a-6" id="linearGradient17196" gradientUnits="userSpaceOnUse" x1="64" y1="19.7" x2="64" y2="107.7"/>
    <linearGradient xlink:href="#a-6" id="linearGradient17210" gradientUnits="userSpaceOnUse" x1="64" y1="19.7" x2="64" y2="107.7"/>
    <linearGradient xlink:href="#a-6" id="linearGradient17224" gradientUnits="userSpaceOnUse" x1="64" y1="19.7" x2="64" y2="107.7"/>
    <linearGradient id="e" x1="63.9" x2="63.9" y1="25" y2="107.7" gradientUnits="userSpaceOnUse">
      <stop stop-color="#FED133" offset=".5" id="stop8565"/>
      <stop stop-color="#FDCE32" offset=".6" id="stop8567"/>
      <stop stop-color="#FCC32E" offset=".7" id="stop8569"/>
      <stop stop-color="#F9B128" offset=".8" id="stop8571"/>
      <stop stop-color="#F6A323" offset=".9" id="stop8573"/>
    </linearGradient>
    <clipPath id="a">
      <use xlink:href="#d" id="use8611" width="100%" height="100%" x="0" y="0"/>
    </clipPath>
    <clipPath id="clipPath17244">
      <use xlink:href="#d" id="use17242" width="100%" height="100%" x="0" y="0"/>
    </clipPath>
    <clipPath id="clipPath17248">
      <use xlink:href="#d" id="use17246" width="100%" height="100%" x="0" y="0"/>
    </clipPath>
    <clipPath id="clipPath17252">
      <use xlink:href="#d" id="use17250" width="100%" height="100%" x="0" y="0"/>
    </clipPath>
    <clipPath id="b-1">
      <use id="use8623" xlink:href="#c" width="100%" height="100%" x="0" y="0"/>
    </clipPath>
    <path d="M27.7 72.8v10c11 6.5 23.1 10 35.8 10a70 70 0 0 0 35.7-10v-10zm35.8 26.9c-8 0-14.8 4.3-18.5 10.7a39.3 39.3 0 0 0 18.5 4.2c7.2 0 13.7-1.6 18.5-4.2a21.3 21.3 0 0 0-18.5-10.7z" id="c"/>
    <linearGradient id="e-8" x1="63.9" x2="63.9" y1="25" y2="107.7" gradientUnits="userSpaceOnUse">
      <stop stop-color="#FED133" offset=".5" id="stop8565-7"/>
      <stop stop-color="#FDCE32" offset=".6" id="stop8567-9"/>
      <stop stop-color="#FCC32E" offset=".7" id="stop8569-2"/>
      <stop stop-color="#F9B128" offset=".8" id="stop8571-0"/>
      <stop stop-color="#F6A323" offset=".9" id="stop8573-2"/>
    </linearGradient>
    <clipPath id="a-3">
      <use xlink:href="#d" id="use8611-7" width="100%" height="100%" x="0" y="0"/>
    </clipPath>
    <clipPath id="clipPath17413">
      <use xlink:href="#d" id="use17411" width="100%" height="100%" x="0" y="0"/>
    </clipPath>
    <clipPath id="clipPath17417">
      <use xlink:href="#d" id="use17415" width="100%" height="100%" x="0" y="0"/>
    </clipPath>
    <clipPath id="clipPath17421">
      <use xlink:href="#d" id="use17419" width="100%" height="100%" x="0" y="0"/>
    </clipPath>
    <clipPath id="b-5">
      <use id="use8623-9" xlink:href="#c-1" width="100%" height="100%" x="0" y="0"/>
    </clipPath>
    <path d="M27.7 72.8v10c11 6.5 23.1 10 35.8 10a70 70 0 0 0 35.7-10v-10zm35.8 26.9c-8 0-14.8 4.3-18.5 10.7a39.3 39.3 0 0 0 18.5 4.2c7.2 0 13.7-1.6 18.5-4.2a21.3 21.3 0 0 0-18.5-10.7z" id="c-1"/>
    <linearGradient xlink:href="#a-6" id="linearGradient17608" gradientUnits="userSpaceOnUse" x1="64" y1="19.7" x2="64" y2="107.7"/>
    <clipPath id="cat-mouth">
      <use xlink:href="#d" id="use8611-4" width="100%" height="100%" x="0" y="0"/>
    </clipPath>
    <clipPath id="clipPath17628">
      <use xlink:href="#d" id="use17626" width="100%" height="100%" x="0" y="0"/>
    </clipPath>
    <clipPath id="clipPath17632">
      <use xlink:href="#d" id="use17630" width="100%" height="100%" x="0" y="0"/>
    </clipPath>
    <clipPath id="clipPath17636">
      <use xlink:href="#d" id="use17634" width="100%" height="100%" x="0" y="0"/>
    </clipPath>
    <clipPath id="b-52">
      <use id="use8623-5" xlink:href="#c-4" width="100%" height="100%" x="0" y="0"/>
    </clipPath>
    <path d="M27.7 72.8v10c11 6.5 23.1 10 35.8 10a70 70 0 0 0 35.7-10v-10zm35.8 26.9c-8 0-14.8 4.3-18.5 10.7a39.3 39.3 0 0 0 18.5 4.2c7.2 0 13.7-1.6 18.5-4.2a21.3 21.3 0 0 0-18.5-10.7z" id="c-4"/>
    <linearGradient id="cat-gradient" x1="63.9" x2="63.9" y1="25" y2="107.7" gradientUnits="userSpaceOnUse">
      <stop stop-color="#FED133" offset=".5" id="stop20273"/>
      <stop stop-color="#FDCE32" offset=".6" id="stop20275"/>
      <stop stop-color="#FCC32E" offset=".7" id="stop20277"/>
      <stop stop-color="#F9B128" offset=".8" id="stop20279"/>
      <stop stop-color="#F6A323" offset=".9" id="stop20281"/>
    </linearGradient>
    <clipPath id="mouth-clip">
      <path id="cat-mouth-7" d="M63.5 83.6c-10.6 0-20.4-.9-28.6-2.4a3 3 0 0 0-3.4 3.4 32 32 0 0 0 32 24.3c17.6 0 29.5-11.3 32-24.3a3 3 0 0 0-3.5-3.4c-8.2 1.5-18 2.4-28.5 2.4z"/>
    </clipPath>
    <clipPath id="clipPath20976">
      <path id="path20974" d="M63.5 83.6c-10.6 0-20.4-.9-28.6-2.4a3 3 0 0 0-3.4 3.4 32 32 0 0 0 32 24.3c17.6 0 29.5-11.3 32-24.3a3 3 0 0 0-3.5-3.4c-8.2 1.5-18 2.4-28.5 2.4z"/>
    </clipPath>
    <clipPath id="clipPath20980">
      <path id="path20978" d="M63.5 83.6c-10.6 0-20.4-.9-28.6-2.4a3 3 0 0 0-3.4 3.4 32 32 0 0 0 32 24.3c17.6 0 29.5-11.3 32-24.3a3 3 0 0 0-3.5-3.4c-8.2 1.5-18 2.4-28.5 2.4z"/>
    </clipPath>
    <clipPath id="clipPath20984">
      <path id="path20982" d="M63.5 83.6c-10.6 0-20.4-.9-28.6-2.4a3 3 0 0 0-3.4 3.4 32 32 0 0 0 32 24.3c17.6 0 29.5-11.3 32-24.3a3 3 0 0 0-3.5-3.4c-8.2 1.5-18 2.4-28.5 2.4z"/>
    </clipPath>
    <clipPath id="teeth-tongue">
      <path id="path20340" d="M27.7 72.8v10c11 6.5 23.1 10 35.8 10a70 70 0 0 0 35.7-10v-10zm35.8 26.9c-8 0-14.8 4.3-18.5 10.7a39.3 39.3 0 0 0 18.5 4.2c7.2 0 13.7-1.6 18.5-4.2a21.3 21.3 0 0 0-18.5-10.7z"/>
    </clipPath>
    <linearGradient y2="107.7" x2="64" y1="19.7" x1="64" gradientUnits="userSpaceOnUse" id="linearGradient21863" xlink:href="#a-6"/>
    <linearGradient y2="107.7" x2="64" y1="19.7" x1="64" gradientUnits="userSpaceOnUse" id="linearGradient21875" xlink:href="#a-6"/>
    <linearGradient y2="107.7" x2="64" y1="19.7" x1="64" gradientUnits="userSpaceOnUse" id="linearGradient21887" xlink:href="#a-6"/>
  </defs>
  <g id="g3051" transform="translate(160.8 265.7) scale(.8332)">
    <path d="M119.5 108H8.2a4.3 4.3 0 0 1-4.3-4.3V36.2c0-2.4 2-4.3 4.3-4.3h111.3c2.4 0 4.4 2 4.4 4.3v67.5c0 2.4-2 4.3-4.4 4.3z" fill="#2E7D32" id="path906"/>
    <path d="M119.7 95.9H8a4.2 4.2 0 0 1-4.2-4.2V36.2c0-2.4 2-4.3 4.4-4.3h111.2c2.4 0 4.4 2 4.4 4.3v55.4c0 2.4-2 4.3-4.2 4.3z" fill="url(#green-gradient)" id="path913" style="fill:url(#green-gradient)"/>
    <g fill="#fff" id="g919">
      <path d="M39.5 71.3a4 4 0 0 0-1.2-3c-.9-1-2.4-1.7-4.4-2.4-2.9-.8-5-2-6.2-3.4a7.5 7.5 0 0 1-2-5.3c0-2.2.6-4 2-5.4a8 8 0 0 1 5.2-2.5v-3.5c0-.5.4-.9 1-.9h1c.6 0 1 .4 1 1v3.4c2.2.3 4 1.3 5.2 2.9a9.7 9.7 0 0 1 1.9 5.6c0 .5-.4.8-.8.8H40a.8.8 0 0 1-.8-.7A6.5 6.5 0 0 0 38 54a4.4 4.4 0 0 0-3.7-1.6c-1.6 0-2.8.4-3.6 1.2-.9.8-1.3 2-1.3 3.5 0 1.3.5 2.4 1.4 3.2.8.8 2.3 1.6 4.3 2.2 2 .7 3.7 1.4 4.8 2.2 1.2.8 2 1.7 2.6 2.8a8 8 0 0 1 .8 3.7c0 2.3-.7 4.1-2 5.5a9 9 0 0 1-5.8 2.4v3c0 .4-.4.9-1 .9h-1a1 1 0 0 1-1-1v-2.9a8.6 8.6 0 0 1-5.8-2.6 8.5 8.5 0 0 1-2-5.5c-.1-.4.3-.8.7-.8h2.1c.4 0 .8.3.8.7.1 1.5.6 2.7 1.5 3.6 1 1 2.3 1.5 4.1 1.5 1.8 0 3.2-.4 4.2-1.3 1-.8 1.5-2 1.5-3.5z" id="path915"/>
      <path d="M32.9 49.4v-1l3 1-.4 29.8v.9l-3-.9z" id="polygon917"/>
    </g>
    <circle cx="84.7" cy="63.9" r="18.5" fill="#2E7D32" opacity=".5" id="circle921"/>
    <path d="M106.3 39c.9 5.5 5.2 9.7 10.6 10.6v28.5a13 13 0 0 0-10.6 10.6h-85a13 13 0 0 0-10.4-9.9V50.3c5.6-1 10-5.5 10.6-11.2h84.8m1.9-2H19.6v.6c0 6-4.8 10.7-10.7 10.7v32.3c5.7 0 10.3 4.4 10.7 10h88.6c0-6 4.8-10.7 10.7-10.7V47.8c-6 0-10.7-4.8-10.7-10.7z" fill="#2E7D32" id="path923"/>
    <path d="M52.9 31.9h22v76.2h-22z" fill="#FFECB3" id="rect925"/>
    <path d="M52.9 95.9h22v12.2h-22z" fill="#FFB74D" opacity=".5" id="rect927"/>
    <g opacity=".2" id="g931">
      <path d="M119.5 32.9c1.9 0 3.4 1.5 3.4 3.4v67.4c0 1.9-1.5 3.4-3.4 3.4H8.2a3.4 3.4 0 0 1-3.3-3.4V36.2c0-1.8 1.5-3.3 3.3-3.3h111.3m0-1H8.2c-2.4 0-4.3 2-4.3 4.4v67.4c0 2.4 2 4.4 4.3 4.4h111.3c2.4 0 4.4-2 4.4-4.4V36.2c0-2.4-2-4.3-4.4-4.3z" fill="#424242" id="path929"/>
    </g>
  </g>
  <g id="g4543" transform="translate(184.7 170.6) scale(.83375)">
    <path d="M107.8 75.8a65.9 65.9 0 0 0-5.5-8c-2.9-3.9-6-7.5-8.7-11.5-2.7-4-4.7-8.1-8-11.6-3.2-3.2-7-5.4-11.1-6.3-1.6-.6-3-1.5-4-2.5h.5v-4h-.8c0-1 .2-1.3.4-1.9L75 16.7c.4-1 .7-2 1.4-2.9.9-1 2.2-1.8 3.1-3 1-1 1.3-2.8.2-3.8-2-.3-4.2-.1-6.1.7.6-1-.1-2.5-1.2-3-1-.7-2.4-.7-3.6-.7l-8.7.1c-1.3 0-2.8.2-3.6 1.1-.5.5-.6 1.1-1.1 1.6-1.3 1.4-3.6 1-5.5.6s-4.4-.1-5 1.8c-.1.7 0 1.3.1 2a54.4 54.4 0 0 0 8.2 18.4c.6 1 .7 1.3 1 2.3H54v3.6c0 .5-2.1 1.4-2.5 1.7-4.8 2.5-9 6.8-12.8 10.6-4 4-7.6 8.2-10.9 12.8a53.8 53.8 0 0 0-11.7 26 26 26 0 0 0 3.3 14.6 50.8 50.8 0 0 0 27.1 21h.2a59.2 59.2 0 0 0 36.7-3c7.6-3 14.4-7.4 20.2-13 3-3 5.6-6.3 7-10.2 2.5-6.9.7-14-2.8-20.2z" fill="url(#b)" id="path3943" style="fill:url(#b)"/>
    <g opacity=".2" id="g3947">
      <path d="M69 7l1.7.1a3 3 0 0 0 4.2 3.4L76 10a11.2 11.2 0 0 0-3.8 5.6A531.8 531.8 0 0 0 67.9 29a7 7 0 0 0-.6 2.9c0 .7.3 1.5.8 2v.3l-.3.6a3 3 0 0 0 .7 3.3c1.4 1.3 3.2 2.4 5 3.1l.4.1c3.6.8 7 2.7 9.6 5.5 2.1 2.2 3.7 4.8 5.4 7.5A106.2 106.2 0 0 0 100 69.6c2.3 3 4 5.4 5.3 7.7 3.6 6.5 4.5 12.4 2.6 17.7-1.2 3-3.3 6-6.3 9a57.4 57.4 0 0 1-19.2 12.4c-7.7 3-15.6 4.6-23 4.6-4.2 0-8.1-.6-11.8-1.6h-.1A48.2 48.2 0 0 1 22 99.7a23 23 0 0 1-3-13c.6-8.4 5.8-16.7 11.2-24.4a98.5 98.5 0 0 1 22.6-22.6l.3-.1c1.7-.9 3.9-2 3.9-4.2v-2.2a3 3 0 0 0 .1-2.4l-.1-.5c-.3-.8-.5-1.3-1.1-2.3l-.2-.3c-3.2-4.3-6-10.6-7.6-17.2l-.1-.3h1.6c1 .3 2.1.5 3.3.5a6.2 6.2 0 0 0 5.7-3.3l.1-.2A213.2 213.2 0 0 0 69 7m0-3l-8.7.1c-1.3 0-2.8.2-3.7 1.1-.4.5-.5 1.1-1 1.6-.7.7-1.6 1-2.6 1s-2-.2-2.9-.4l-1.5-.2c-1.5 0-3 .5-3.5 2-.1.7 0 1.3.1 2a54.4 54.4 0 0 0 8.2 18.4c.6 1 .7 1.3 1 2.3H54v3.6c0 .5-2.2 1.4-2.6 1.7a99.1 99.1 0 0 0-23.6 23.5 53.8 53.8 0 0 0-11.7 25.9 26 26 0 0 0 3.3 14.6 50.8 50.8 0 0 0 27.1 21h.2c4 1.2 8.4 1.8 12.7 1.8 8.2 0 16.6-2 24-4.8 7.6-3 14.4-7.4 20.2-13 3-3 5.6-6.3 7-10.2 2.5-7 .7-14-2.8-20.2a65.9 65.9 0 0 0-5.5-8c-2.9-3.9-6-7.5-8.7-11.5-2.6-4-4.7-8.1-8-11.6-3.1-3.2-7-5.4-11.1-6.3-1.6-.6-3-1.5-4-2.5h.5v-4h-.8c0-1 .2-1.3.4-1.9L75 16.7c.4-1 .7-2 1.4-3 .9-1 2.2-1.7 3.1-2.8 1-1.1 1.3-3 .1-3.9a10.5 10.5 0 0 0-6 .7c.6-1-.1-2.5-1.2-3-1-.7-2.4-.7-3.6-.7z" fill="#424242" id="path3945"/>
    </g>
    <path d="M65.2 35.1c-3-3.7-.9-4.2-2-7.5-1-3-2.8-5.9-5.7-8.6l.4 2c.8 3-.5 6 .8 9 1 2.5 3.4 3.7 6.1 6 .1-.3.7-.5.4-.9z" fill="#212121" opacity=".2" id="path3949"/>
    <path d="M71.3 36.7H53.6a2.7 2.7 0 0 1-2.7-2.7c0-1.5 1.2-2.7 2.7-2.7h17.7c1.4 0 2.7 1.2 2.7 2.7 0 1.5-1.3 2.7-2.7 2.7z" fill="#6D4C41" id="path3951"/>
    <g opacity=".2" id="g3955">
      <path d="M71.3 32.3c.9 0 1.7.8 1.7 1.7 0 1-.8 1.7-1.7 1.7H53.6a1.7 1.7 0 1 1 0-3.4h17.7m0-1H53.6a2.7 2.7 0 0 0-2.7 2.7c0 1.5 1.2 2.7 2.7 2.7h17.7c1.4 0 2.7-1.2 2.7-2.7 0-1.5-1.3-2.7-2.7-2.7z" fill="#424242" id="path3953"/>
    </g>
    <path d="M77.4 92.8a13 13 0 0 0-1.3-6 12 12 0 0 0-4-4.4c-1.7-1.2-4-2.3-6.8-3.2l.2-16.3c1.3.4 2.5 1.2 3.4 2.3 1.2 1.5 2 3.3 2.1 5.8 0 .7.6 1 1.3 1h3.3c.8 0 1.4-.4 1.3-1.1a15 15 0 0 0-2.7-9c-2-2.5-5.2-3.9-8.2-4.4V52c0-.8-1.1-1.9-2-1.9h-1.8c-.8 0-1.2 1-1.2 2v4l-.1 1.5c-3.6.4-6.5 1.7-8.5 4a12.1 12.1 0 0 0-3.2 8.7c0 3.4 1 6.3 3.2 8.5 1.8 2 4.4 3.5 8 4.8l-.1 16.7a8 8 0 0 1-4.6-2.2 9 9 0 0 1-2.3-5.8c0-.7-.6-1.2-1.3-1.2h-3.3c-.8 0-1.4.7-1.4 1.4.3 3.6 1.3 6.6 3.3 8.8 2.3 2.4 5.3 3.9 9.3 4.3v4.6c0 .8.9 1.9 1.7 1.9h1.8c.8 0 1.5-1 1.5-1.9v-4.6c4-.4 7-1.8 9.1-4a12 12 0 0 0 3.3-8.7zm-20-17.5a6.7 6.7 0 0 1-2.2-5.3c0-2.3.6-4.2 2-5.5.9-.9 2-1.4 3.5-1.7l-.2 14.5c-1.3-.6-2.4-1.3-3.2-2zm11.6 23c-1 1-2.4 1.6-4 1.9l.2-15c1.8.9 3.2 1.7 4.2 2.6a7 7 0 0 1 2 5 7 7 0 0 1-2.4 5.6z" fill="#6b4a3f" id="path3962"/>
  </g>
  <g id="g10942" transform="translate(1087.9 622.4) scale(.81755)">
    <path d="M52 87.8c-2.5-1.8-6-3.5-9.6-2.8-9.9 2.2-37.5-9.7-37.5-9.7s-1.5 22.7 20.6 31c27 10.3 57.6 1.9 71.3-16.3.2-.3-27.7 9.1-44.6-2.3z" fill="url(#b)" id="path10342" style="fill:url(#b-7)"/>
    <path d="M115 50.8c-5.5-1.2-6.9-1.5-9.2-.3-1 .5-2 0-2.5-1C101.8 46 93 43.8 90 42.8c-1.5-.5-2.5.7-2.4 2.3.1 1.3 3 8.5 6 10.9 12.4 9.6 1 28.3-15.8 22.3-12.3-4.4 2-28-11.7-33.7-11-4.6-43.5-16.2-52.3-5C7.3 47.7 5 75.2 5 75.2a80 80 0 0 0 37.4 10.6c.4 0 0 4.6 2.6 10.3 9.6 20.3 29 20.6 27.4 18.2A102.8 102.8 0 0 1 59.2 91c7.8 4 33.4 5.2 37.5-1.1 9-13.9 4.6-27.3 10.4-28 6.6-.8 12.3-2.5 16.6-7.3 1-1.2 0-3-1.6-2.8-1.7.2-3.8-.4-7-1.1z" fill="url(#a)" id="path10349" style="fill:url(#a-0)"/>
    <circle cx="33.6" cy="69.1" fill="#fff" id="ellipse10351" r="5"/>
    <circle cx="33.6" cy="69.1" id="ellipse10353" r="2.6" style="fill:#333333"/>
    <path d="M12.4 82.8l.6 1.1.6 1.3 1 1.6 1 2c.4.6 1 1.2 1.4 2l1.5 2 1.6 2 1.8 1.9 1.9 1.7 1.8 1.6 1.7 1.3c.6.4 1 .8 1.5 1l1.3.9 1 .7v.2l-1.2-.4-1.4-.6-1.7-.8-2-1.2-2-1.4c-.7-.6-1.4-1.1-2-1.8l-2-2-1.7-2.1c-.6-.7-1-1.5-1.5-2.2-.4-.8-.9-1.5-1.2-2.3a22 22 0 0 1-2-5.2l-.2-1.3z" fill="#BDBDBD" id="path10355"/>
    <path d="M19.9 84.1l.7 1.2.7 1.3 1 1.6 1.3 1.9 1.4 2 1.6 2.1 1.8 2.1 1.9 2 1.9 1.8c.6.6 1.2 1.2 1.9 1.6l1.7 1.4 1.6 1.2 1.2.9 1 .8v.2l-1.2-.6-1.4-.6c-.5-.2-1.1-.5-1.7-1l-2-1.1-2.1-1.6-2.1-1.8-2-2-1.9-2.2-1.6-2.3-1.3-2.3a26.4 26.4 0 0 1-2.6-6.6z" fill="#BDBDBD" id="path10357"/>
    <path d="M28.7 87.8l.7 1.1.8 1.3 1 1.6 1.3 1.8 1.5 2 1.7 1.9 2 1.8c.6.6 1.2 1.3 2 1.8l2 1.6c.7.4 1.3 1 2 1.3l1.9 1.2 1.6.9 1.3.7 1.2.6v.2l-1.3-.3-1.4-.4-1.9-.7-2-1c-.8-.3-1.5-.7-2.3-1.2l-2.3-1.5-2.1-1.8-2-2-1.7-2.2-1.4-2.2a21.4 21.4 0 0 1-1.9-3.8l-.5-1.4-.4-1.2z" fill="#BDBDBD" id="path10359"/>
    <path d="M122.2 52c-1.8.1-3.9-.5-7.2-1.2-5.5-1.2-6.9-1.5-9.2-.3-1 .5-2 0-2.5-1C101.8 46 93 43.8 90 42.8c-1.5-.5-2.5.7-2.4 2.3.1 1.3 3 8.5 6 10.9 12.4 9.6 1 28.3-15.8 22.3-12.3-4.4 2-28-11.7-33.7-11-4.6-43.5-16.2-52.3-5-6.4 8.2-8.9 35.8-8.9 35.8s-1.5 22.7 20.6 31a69 69 0 0 0 31.3 4.1c8.4 5.9 16.7 5.5 15.6 3.8l-4-6A53.8 53.8 0 0 0 96.8 90c9-13.9 4.6-27.3 10.4-28 6.6-.8 12.3-2.5 16.6-7.3 1-1.2 0-3-1.5-2.8z" fill="none" stroke="#3592CA" stroke-linecap="round" stroke-linejoin="round" stroke-miterlimit="10" stroke-width="3" id="path10361"/>
  </g>
  <g id="g11763" transform="translate(1307.8 142.7) scale(.81646)">
    <path d="M53 72c-4.5 0-21-11.3-30-29C13 22.8 11.3 7.1 18.9 3.1a5 5 0 0 1 2.3-.6c7.3 0 18.6 12 27 28.4 10.1 20.1 7.5 39.5 5.2 41H53z" fill="url(#f)" id="path11114" style="fill:url(#f)"/>
    <path d="M21.1 4c5.7 0 16.6 9.7 25.6 27.6 4 7.9 6.5 17 7 25.7a30 30 0 0 1-1.1 13c-4.3-.7-19.5-10.9-28.1-28-9.7-19-11.7-34.3-5-37.8a3 3 0 0 1 1.6-.4m0-3.1c-1 0-2.1.2-3 .8C9 6.6 11.6 24 21.6 43.6 31 61.8 47.7 73.5 53 73.5c.5 0 .9-.1 1.2-.3 3.6-2.4 5.2-23.3-4.8-43C40.7 13 29 1 21.1 1z" fill="#B0B0B0" id="path11116"/>
    <path d="M42.3 34c4.7 9.4 4 19.3 2.2 20.4-1.6 1-10.6-4.6-15.3-14-4.8-9.3-6-17.5-1.8-19.8 3.6-1.9 10.2 4.1 14.9 13.5z" fill="url(#e)" id="path11125" style="fill:url(#e-9)"/>
    <path d="M75 72l-.3-.1c-2.3-1.5-5-20.9 5.2-41 8.4-16.4 19.7-28.4 27-28.4a5 5 0 0 1 2.4.6c7.5 4 5.8 19.7-4.4 39.9-9 17.7-25.4 29-30 29z" fill="url(#d)" id="path11138" style="fill:url(#d-3)"/>
    <path d="M106.9 4a3 3 0 0 1 1.6.5c6.7 3.5 4.7 18.7-5 37.8-8.6 17.1-23.8 27.2-28 28-.7-1.4-1.8-5.6-1.3-13 .6-8.7 3.1-17.8 7.1-25.7 9-17.9 20-27.5 25.6-27.5m0-3.1C99 1 87.3 13 78.6 30.2c-10 19.7-8.4 40.6-4.7 43 .2.2.6.2 1 .2 5.4 0 22.2-11.6 31.4-29.7 10-19.7 12.8-37 3.7-42-1-.5-2-.7-3.1-.7z" fill="#B0B0B0" id="path11140"/>
    <path d="M85.7 34c-4.7 9.4-4 19.3-2.2 20.4 1.6 1 10.6-4.6 15.3-14 4.7-9.3 6-17.5 1.8-19.8-3.6-1.9-10.2 4.1-14.9 13.5z" fill="url(#c)" id="path11149" style="fill:url(#c-6)"/>
    <path d="M64 122.1c-35.5 0-43-17.7-43-32.6 0-25.5 16.9-42 43-42s43 16.5 43 42c0 28.4-27 32.6-43 32.6z" fill="url(#b)" id="path11158" style="fill:url(#b-0)"/>
    <path d="M64 48.9c13 0 23.9 4.1 31.2 12a41.5 41.5 0 0 1 10.4 28.6c0 10.4-3.8 18.3-11.2 23.6a53 53 0 0 1-30.4 7.6c-19 0-41.6-5.4-41.6-31.2 0-11.3 3.7-21.4 10.4-28.6a41 41 0 0 1 31.2-12m0-2.8c-29.5 0-44.4 20-44.4 43.4 0 23.5 17.7 34 44.4 34 26.2 0 44.4-10.5 44.4-34S93.3 46.1 64 46.1z" fill="#B0B0B0" id="path11160"/>
    <g fill="#404040" id="g11166">
      <ellipse cx="84.4" cy="78.6" rx="6.2" ry="6.7" id="ellipse11162"/>
      <ellipse cx="43.6" cy="78.5" rx="6.2" ry="6.7" id="ellipse11164"/>
    </g>
    <path d="M80.8 101.4a8.3 8.3 0 0 1-2.3 4.4 8.5 8.5 0 0 1-12.1-.3c-1.4-1.4-2.2-5.6-2.4-7.3-.2 1.7-1 5.9-2.3 7.2a8.5 8.5 0 0 1-12 0 8.8 8.8 0 0 1-2.5-4.4" fill="none" stroke="#B3B3B3" stroke-linecap="round" stroke-linejoin="round" stroke-miterlimit="10" stroke-width="3" id="path11168"/>
    <path d="M57.7 89c-2 0-3.4 2-2.7 3.9 1.6 4.1 4.3 7 8.8 7h.4c4.4 0 7.2-2.9 8.8-7 .7-2-.7-3.9-2.8-3.9z" fill="url(#a)" id="path11177" style="fill:url(#a-6-6)"/>
  </g>
  <g transform="matrix(-1 0 0 1 1490.4 1151.3)" id="g19580">
    <path id="path19530" d="M32.4-370.4l-8 1.3 10.2 107.5 103.8 23.5"/>
    <path d="M45.9-274.6l-8-89.5 95-13 8.2 71.7z" fill="#8BDCFF" id="path19532"/>
    <path d="M32.4-370.4l9 104m-9-104l106-13 9 83m-115-70l-8 1.3 10.2 107.5 103.8 23.5m-97-28.3l106-34m-106 34l97 21m9-55l89 16m-98 39l98-39m-98 39v7.3m98-46.3v7.5l-98 38.8m-92.5-36.5l-8-89.5 95-13 8.2 71.7z" stroke="#000" id="path19534"/>
    <path d="M41.4-266.4l-9-104-8 1.3 10.2 107.5 103.8 23.5v-7.3z" fill="#9C81BD" id="path19536"/>
    <path id="path19538" d="M45.9-274.6l-8-89.5 95-13 8.2 71.7z"/>
    <path id="path19540" d="M236.4-284.4v7.5l-98 38.8"/>
    <path id="path19542" d="M138.4-245.4v7.3"/>
    <path id="path19544" d="M138.4-245.4l98-39"/>
    <path id="path19546" d="M147.4-300.4l89 16"/>
    <path id="path19548" d="M41.4-266.4l97 21"/>
    <path id="path19550" d="M41.4-266.4l106-34"/>
    <path id="path19552" d="M32.4-370.4l106-13 9 83"/>
    <path id="path19554" d="M32.4-370.4l9 104"/>
    <path d="M147.4-300.4l-106 34 97 21 98-39z" fill="#FBA0F2" id="path19556"/>
    <path fill-rule="evenodd" clip-rule="evenodd" d="M32.4-370.4l9 104 106-34-9-83zm5.5 6.3l8 89.5 95.2-30.8L133-377z" fill="#B64FC7" id="path19558"/>
    <path id="path19560" d="M236.4-284.4v7.5l-98 38.8"/>
    <path id="path19562" d="M138.4-245.4v7.3"/>
    <path id="path19564" d="M147.4-300.4l89 16"/>
    <path id="path19566" d="M41.4-266.4l97 21"/>
    <path id="path19568" d="M41.4-266.4l106-34"/>
    <path id="path19570" d="M138.4-245.4l98-39"/>
    <path id="path19572" d="M32.4-370.4l9 104"/>
    <path id="path19574" fill="#B64FC7" d="M236.4-284.4l-98 39v7.3l98-38.8z"/>
    <path style="fill:#8bdcff;fill-opacity:1" d="M45.9-274.6l-8-89.5 95-13 8.2 71.7z" id="path19576"/>
    <path style="fill:none" d="M32.4-370.4l9 104m-9-104l106-13 9 83m-115-70l-8 1.3 10.2 107.5 103.8 23.5m-97-28.3l106-34m-106 34l97 21m9-55l89 16m-98 39l98-39m-98 39v7.3m98-46.3v7.5l-98 38.8m-92.5-36.5l-8-89.5 95-13 8.2 71.7z" stroke="#000" id="path19578"/>
  </g>
  <g id="g8418" transform="translate(1306.7 771.7) scale(.83333)">
    <path d="M64 119.9c-28 0-58-17.5-58-55.9S36 8.1 64 8.1c15.5 0 29.8 5.1 40.4 14.4A53.5 53.5 0 0 1 122 64c0 16.9-6.1 31.2-17.6 41.4A60.6 60.6 0 0 1 64 119.9z" fill="url(#a)" id="path8408" style="fill:url(#linear-gradient9805)"/>
    <path d="M64 10.1c15 0 28.9 5 39 14A51.5 51.5 0 0 1 120 64c0 16.3-5.9 30-17 39.9-10.2 9-24 14-39 14s-28.9-5-39-13.8A51.5 51.5 0 0 1 8 64c0-16.5 5.9-30.4 17-40.2a58.9 58.9 0 0 1 39-13.7m0-4C32.9 6.1 4 26.1 4 64c0 37.7 28.9 57.9 60 57.9s60-20.7 60-57.9c0-37.4-28.9-57.9-60-57.9z" fill="#EB8F00" id="path8410"/>
    <path d="M64 96.1C52 96.1 43.5 90 41 86c-1-1.6-1.5-3.4-.5-4.4 2.1-2.2 11.2 4 23.6 4 12.4 0 21.8-6 23.7-4 1 1 .4 2.8-.6 4.4-2.5 3.9-11 10.1-23 10.1z" fill="#242424" id="path8412"/>
    <path d="M82.8 41.4c4.2 0 8 3.5 8 9.4s-3.8 9.4-8 9.4-8-3.5-8-9.4 3.8-9.4 8-9.4z" fill="#242424" id="path8414"/>
    <path d="M45.2 41.4c-4.2 0-8 3.5-8 9.4s3.8 9.4 8 9.4 8-3.5 8-9.4-3.8-9.4-8-9.4z" fill="#242424" id="path8416"/>
  </g>
  <g transform="translate(1314.7 622.5) scale(.83333)" id="g17194">
    <path style="fill:url(#linearGradient17196)" id="path17184" fill="url(#a)" d="M64 119.9c-28 0-58-17.5-58-55.9S36 8.1 64 8.1c15.5 0 29.8 5.1 40.4 14.4A53.5 53.5 0 0 1 122 64c0 16.9-6.1 31.2-17.6 41.4A60.6 60.6 0 0 1 64 119.9z"/>
    <path id="path17186" fill="#EB8F00" d="M64 10.1c15 0 28.9 5 39 14A51.5 51.5 0 0 1 120 64c0 16.3-5.9 30-17 39.9-10.2 9-24 14-39 14s-28.9-5-39-13.8A51.5 51.5 0 0 1 8 64c0-16.5 5.9-30.4 17-40.2a58.9 58.9 0 0 1 39-13.7m0-4C32.9 6.1 4 26.1 4 64c0 37.7 28.9 57.9 60 57.9s60-20.7 60-57.9c0-37.4-28.9-57.9-60-57.9z"/>
    <path id="path17188" fill="#242424" d="M64 96.1C52 96.1 43.5 90 41 86c-1-1.6-1.5-3.4-.5-4.4 2.1-2.2 11.2 4 23.6 4 12.4 0 21.8-6 23.7-4 1 1 .4 2.8-.6 4.4-2.5 3.9-11 10.1-23 10.1z"/>
    <path id="path17190" fill="#242424" d="M82.8 41.4c4.2 0 8 3.5 8 9.4s-3.8 9.4-8 9.4-8-3.5-8-9.4 3.8-9.4 8-9.4z"/>
    <path id="path17192" fill="#242424" d="M45.2 41.4c-4.2 0-8 3.5-8 9.4s3.8 9.4 8 9.4 8-3.5 8-9.4-3.8-9.4-8-9.4z"/>
  </g>
  <g transform="translate(813.7 769) scale(.83333)" id="g17208">
    <path style="fill:url(#linearGradient17210)" id="path17198" fill="url(#a)" d="M64 119.9c-28 0-58-17.5-58-55.9S36 8.1 64 8.1c15.5 0 29.8 5.1 40.4 14.4A53.5 53.5 0 0 1 122 64c0 16.9-6.1 31.2-17.6 41.4A60.6 60.6 0 0 1 64 119.9z"/>
    <path id="path17200" fill="#EB8F00" d="M64 10.1c15 0 28.9 5 39 14A51.5 51.5 0 0 1 120 64c0 16.3-5.9 30-17 39.9-10.2 9-24 14-39 14s-28.9-5-39-13.8A51.5 51.5 0 0 1 8 64c0-16.5 5.9-30.4 17-40.2a58.9 58.9 0 0 1 39-13.7m0-4C32.9 6.1 4 26.1 4 64c0 37.7 28.9 57.9 60 57.9s60-20.7 60-57.9c0-37.4-28.9-57.9-60-57.9z"/>
    <path id="path17202" fill="#242424" d="M64 96.1C52 96.1 43.5 90 41 86c-1-1.6-1.5-3.4-.5-4.4 2.1-2.2 11.2 4 23.6 4 12.4 0 21.8-6 23.7-4 1 1 .4 2.8-.6 4.4-2.5 3.9-11 10.1-23 10.1z"/>
    <path id="path17204" fill="#242424" d="M82.8 41.4c4.2 0 8 3.5 8 9.4s-3.8 9.4-8 9.4-8-3.5-8-9.4 3.8-9.4 8-9.4z"/>
    <path id="path17206" fill="#242424" d="M45.2 41.4c-4.2 0-8 3.5-8 9.4s3.8 9.4 8 9.4 8-3.5 8-9.4-3.8-9.4-8-9.4z"/>
  </g>
  <g transform="translate(879.4 325.3) scale(.83333)" id="g17606">
    <path style="fill:url(#linearGradient17608)" id="path17596" fill="url(#a)" d="M64 119.9c-28 0-58-17.5-58-55.9S36 8.1 64 8.1c15.5 0 29.8 5.1 40.4 14.4A53.5 53.5 0 0 1 122 64c0 16.9-6.1 31.2-17.6 41.4A60.6 60.6 0 0 1 64 119.9z"/>
    <path id="path17598" fill="#EB8F00" d="M64 10.1c15 0 28.9 5 39 14A51.5 51.5 0 0 1 120 64c0 16.3-5.9 30-17 39.9-10.2 9-24 14-39 14s-28.9-5-39-13.8A51.5 51.5 0 0 1 8 64c0-16.5 5.9-30.4 17-40.2a58.9 58.9 0 0 1 39-13.7m0-4C32.9 6.1 4 26.1 4 64c0 37.7 28.9 57.9 60 57.9s60-20.7 60-57.9c0-37.4-28.9-57.9-60-57.9z"/>
    <path id="path17600" fill="#242424" d="M64 96.1C52 96.1 43.5 90 41 86c-1-1.6-1.5-3.4-.5-4.4 2.1-2.2 11.2 4 23.6 4 12.4 0 21.8-6 23.7-4 1 1 .4 2.8-.6 4.4-2.5 3.9-11 10.1-23 10.1z"/>
    <path id="path17602" fill="#242424" d="M82.8 41.4c4.2 0 8 3.5 8 9.4s-3.8 9.4-8 9.4-8-3.5-8-9.4 3.8-9.4 8-9.4z"/>
    <path id="path17604" fill="#242424" d="M45.2 41.4c-4.2 0-8 3.5-8 9.4s3.8 9.4 8 9.4 8-3.5 8-9.4-3.8-9.4-8-9.4z"/>
  </g>
  <g id="g20956" transform="matrix(.83285 0 0 .83285 656.7 702.2)">
    <g id="ears">
      <path id="path20284" fill="#FED133" d="M21.8 55.7c-2.2 0-4.1-.5-5.7-1.6-12.7-8.8-10.5-38-10.5-38.2.4-4 3.4-7 7.2-7h.7c11.3 1.2 26 5.6 33.3 14.5 3.8 4.6 2.5 10 .7 13.8-4.5 9.7-16.8 18.5-25.7 18.5z"/>
      <path id="path20286" fill="#EB8F00" d="M12.8 10.4h.5c11 1.1 25.3 5.4 32.4 14 1.8 2.2 3.3 6 .5 12.2-4.3 9-16.2 17.6-24.4 17.6-2 0-3.5-.5-4.8-1.3C7 45.9 6.5 23.9 7 16c.3-3.2 2.7-5.6 5.7-5.6m0-3A8.9 8.9 0 0 0 4 15.8c-.5 6.7-.6 31.3 11.2 39.5 1.8 1.3 4 1.9 6.5 1.9 14.8 0 36.8-22 26.2-34.8-8-9.7-23.6-13.9-34.4-15h-.8z"/>
      <path id="path20288" fill="#EB8F00" d="M5.8 22c0-1.3.2-2.7 1.1-3.6 1.2-1.3 3.1-1.1 4.8-.8 4.5 1 8.8 3 12.4 5.8 1.8 1.5 3.5 3.2 4 5.5 1 3.5-1.3 7-3.4 9.8-1.4 2-3 4.1-4.8 5.7-1.5 1.4-4 4.9-6.1 5.1-2.1.3-2.3-3.7-3.1-5.4a45.4 45.4 0 0 1-4.9-22z"/>
      <path id="path20290" fill="#FED133" d="M106.2 55.7c-8.9 0-21.2-8.8-25.7-18.5-1.8-3.8-3.1-9.2.7-13.8 7.3-9 22-13.3 33.3-14.5h.7c3.8 0 6.8 3 7.1 7 0 .3 2.3 29.4-10.4 38.2a9.6 9.6 0 0 1-5.7 1.6z"/>
      <path id="path20292" fill="#EB8F00" d="M115.2 10.4c3 0 5.4 2.4 5.7 5.6.6 8 0 30-9.9 36.9a8.2 8.2 0 0 1-4.8 1.3c-8.2 0-20.1-8.6-24.4-17.6-2.8-6.1-1.3-10 .5-12.2 7.1-8.6 21.4-12.9 32.4-14h.5m0-3a8 8 0 0 0-.8 0C103.6 8.5 88 12.7 80 22.4c-10.6 12.9 11.4 34.8 26.2 34.8 2.4 0 4.7-.6 6.5-1.9 11.8-8.2 11.7-32.8 11.1-39.5a8.9 8.9 0 0 0-8.6-8.4z"/>
      <path id="path20294" fill="#EB8F00" d="M122.2 22c0-1.3-.2-2.7-1.1-3.6-1.2-1.3-3.1-1.1-4.8-.8-4.5 1-8.8 3-12.4 5.8a10.4 10.4 0 0 0-4 5.5c-1 3.5 1.3 7 3.4 9.8 1.4 2 3 4.1 4.8 5.7a18 18 0 0 0 7.1 3.8c2.1.3 1.3-2.4 2.1-4.1a45.4 45.4 0 0 0 4.9-22z"/>
    </g>
    <g id="face-background">
      <path id="path20297" fill="url(#cat-gradient)" d="M64 119.1c-25.8 0-53.6-16.4-53.6-52.5 0-36 27.8-52.5 53.5-52.5 14.3 0 27.5 4.8 37.3 13.6a50.6 50.6 0 0 1 16.2 39c0 15.8-5.6 29.2-16.3 38.8A55.3 55.3 0 0 1 64 119.1z" style="fill:url(#cat-gradient)"/>
      <path id="path20299" fill="#EB8F00" d="M64 15.6a49.2 49.2 0 0 1 52 51c0 15.4-5.5 28.5-15.9 37.8A53.8 53.8 0 0 1 64 117.6c-25 0-52-16-52-51 0-15.6 5.5-28.8 15.8-38 9.4-8.4 22.3-13 36.2-13m0-3c-28.5 0-55 18.7-55 54 0 35.2 26.5 54 55 54 28.6 0 55-19.3 55-54 0-34.8-26.4-54-55-54z"/>
    </g>
    <g stroke-width="4" stroke-miterlimit="10" stroke-linejoin="round" stroke-linecap="round" stroke="#404040" fill="none" id="left-whiskers">
      <line id="line20302" y2="95.2" y1="105.6" x2="28.6" x1="8.7"/>
      <line id="line20304" y2="91" y1="88" x2="6" x1="27.1"/>
      <line id="line20306" y2="80.9" y1="75.7" x2="27.3" x1="6"/>
    </g>
    <g stroke-width="4" stroke-miterlimit="10" stroke-linejoin="round" stroke-linecap="round" stroke="#404040" fill="none" id="right-whiskers">
      <line id="line20309" y2="95.2" y1="105.6" x2="99.5" x1="119.3"/>
      <line id="line20311" y2="91" y1="88" x2="122" x1="100.8"/>
      <line id="line20313" y2="80.9" y1="75.7" x2="100.7" x1="122"/>
    </g>
    <g id="nose">
      <path id="path20316" fill="#603813" d="M66.5 73.2l5.4-6.1c1.9-2.2.4-5.5-2.5-5.5H58.6A3.3 3.3 0 0 0 56 67l5.4 6a3.3 3.3 0 0 0 5 0z"/>
      <line id="line20318" stroke-width="5" stroke-miterlimit="10" stroke-linejoin="round" stroke-linecap="round" stroke="#404040" fill="none" y2="90.8" y1="69.8" x2="64" x1="64"/>
    </g>
    <g id="head-lines" stroke-width="7" stroke-miterlimit="10" stroke-linejoin="round" stroke-linecap="round" stroke="#EB8F00" fill="none">
      <line id="line20321" y2="37.7" y1="16.7" x2="56" x1="56"/>
      <line id="line20323" y2="37.7" y1="16.7" x2="72" x1="72"/>
    </g>
    <g id="eyes" fill="#404040">
      <ellipse id="ellipse20326" ry="10" rx="8.8" cy="59.6" cx="37.1"/>
      <ellipse id="ellipse20328" ry="10" rx="8.8" cy="59.5" cx="90.9"/>
    </g>
    <g id="mouth-int">
      <path id="path20333" fill="#242424" clip-path="url(#mouth-clip)" d="M63.5 83.6c-10.6 0-20.4-.9-28.6-2.4a3 3 0 0 0-3.4 3.4 32 32 0 0 0 32 24.3c17.6 0 29.5-11.3 32-24.3a3 3 0 0 0-3.5-3.4c-8.2 1.5-18 2.4-28.5 2.4z"/>
      <path id="path20335" fill="#fff" clip-path="url(#mouth-clip)" d="M99.2 82.8v-10H27.7v10c11 6.5 23.1 10 35.8 10 12.6 0 24.7-3.5 35.7-10z"/>
      <path id="path20337" fill="#ED7770" clip-path="url(#mouth-clip)" d="M63.5 99.7c-8 0-14.8 4.3-18.5 10.7a39.3 39.3 0 0 0 18.5 4.2c7.2 0 13.7-1.6 18.5-4.2a21.3 21.3 0 0 0-18.5-10.7z"/>
    </g>
    <g id="g20347" clip-path="url(#mouth-clip)">
      <clipPath id="clipPath21021">
        <path id="path21019" d="M27.7 72.8v10c11 6.5 23.1 10 35.8 10a70 70 0 0 0 35.7-10v-10zm35.8 26.9c-8 0-14.8 4.3-18.5 10.7a39.3 39.3 0 0 0 18.5 4.2c7.2 0 13.7-1.6 18.5-4.2a21.3 21.3 0 0 0-18.5-10.7z"/>
      </clipPath>
      <g id="g20345" clip-path="url(#teeth-tongue)">
        <path id="path20343" fill="#EB8F00" d="M90.8 85.7a25 25 0 0 1-8.3 12.6 29.7 29.7 0 0 1-19 6.4c-12.7 0-24.1-8-27.4-19a167.6 167.6 0 0 0 54.7 0m1.7-4.5H92c-8.2 1.5-18 2.4-28.5 2.4a159.1 159.1 0 0 1-29-2.4 3 3 0 0 0-3 3.4 32 32 0 0 0 32 24.3c17.6 0 29.5-11.3 32-24.3a3 3 0 0 0-3-3.4z"/>
      </g>
    </g>
  </g>
  <g transform="matrix(.83333 0 0 .83333 260.7 671.5)" id="g21873">
    <path style="fill:url(#linearGradient21875)" d="M64 119.9c-28 0-58-17.5-58-55.9S36 8.1 64 8.1c15.5 0 29.8 5.1 40.4 14.4A53.5 53.5 0 0 1 122 64c0 16.9-6.1 31.2-17.6 41.4A60.6 60.6 0 0 1 64 119.9z" fill="url(#face-gradient)" id="path21865"/>
    <path d="M64 10.1c15 0 28.9 5 39 14A51.5 51.5 0 0 1 120 64c0 16.3-5.9 30-17 39.9-10.2 9-24 14-39 14s-28.9-5-39-13.8A51.5 51.5 0 0 1 8 64c0-16.5 5.9-30.4 17-40.2a58.9 58.9 0 0 1 39-13.7m0-4C32.9 6.1 4 26.1 4 64c0 37.7 28.9 57.9 60 57.9s60-20.7 60-57.9c0-37.4-28.9-57.9-60-57.9z" fill="#EB8F00" id="path21867"/>
    <line x1="39" x2="89" y1="84" y2="84" fill="#242424" stroke="#404040" stroke-linecap="round" stroke-linejoin="round" stroke-miterlimit="10" stroke-width="8" id="line21869"/>
    <path d="M82.8 45.5c4.2 0 8 3.6 8 9.5s-3.8 9.4-8 9.4-8-3.6-8-9.5 3.8-9.4 8-9.4zm-37.6 0c-4.2 0-8 3.6-8 9.5s3.8 9.4 8 9.4 8-3.6 8-9.5-3.8-9.4-8-9.4z" fill="#242424" id="path21871"/>
  </g>
  <g id="g21885" transform="matrix(.83333 0 0 .83333 442.7 611.7)">
    <path id="path21877" fill="url(#face-gradient)" d="M64 119.9c-28 0-58-17.5-58-55.9S36 8.1 64 8.1c15.5 0 29.8 5.1 40.4 14.4A53.5 53.5 0 0 1 122 64c0 16.9-6.1 31.2-17.6 41.4A60.6 60.6 0 0 1 64 119.9z" style="fill:url(#linearGradient21887)"/>
    <path id="path21879" fill="#EB8F00" d="M64 10.1c15 0 28.9 5 39 14A51.5 51.5 0 0 1 120 64c0 16.3-5.9 30-17 39.9-10.2 9-24 14-39 14s-28.9-5-39-13.8A51.5 51.5 0 0 1 8 64c0-16.5 5.9-30.4 17-40.2a58.9 58.9 0 0 1 39-13.7m0-4C32.9 6.1 4 26.1 4 64c0 37.7 28.9 57.9 60 57.9s60-20.7 60-57.9c0-37.4-28.9-57.9-60-57.9z"/>
    <line id="line21881" stroke-width="8" stroke-miterlimit="10" stroke-linejoin="round" stroke-linecap="round" stroke="#404040" fill="#242424" y2="84" y1="84" x2="89" x1="39"/>
    <path id="path21883" fill="#242424" d="M82.8 45.5c4.2 0 8 3.6 8 9.5s-3.8 9.4-8 9.4-8-3.6-8-9.5 3.8-9.4 8-9.4zm-37.6 0c-4.2 0-8 3.6-8 9.5s3.8 9.4 8 9.4 8-3.6 8-9.5-3.8-9.4-8-9.4z"/>
  </g>
  <g id="g21820" transform="matrix(.83333 0 0 .83333 122 615.5)">
    <path id="path21237" fill="url(#face-gradient)" d="M64 119.9c-28 0-58-17.5-58-55.9S36 8.1 64 8.1c15.5 0 29.8 5.1 40.4 14.4A53.5 53.5 0 0 1 122 64c0 16.9-6.1 31.2-17.6 41.4A60.6 60.6 0 0 1 64 119.9z" style="fill:url(#linearGradient21863)"/>
    <path id="path21239" fill="#EB8F00" d="M64 10.1c15 0 28.9 5 39 14A51.5 51.5 0 0 1 120 64c0 16.3-5.9 30-17 39.9-10.2 9-24 14-39 14s-28.9-5-39-13.8A51.5 51.5 0 0 1 8 64c0-16.5 5.9-30.4 17-40.2a58.9 58.9 0 0 1 39-13.7m0-4C32.9 6.1 4 26.1 4 64c0 37.7 28.9 57.9 60 57.9s60-20.7 60-57.9c0-37.4-28.9-57.9-60-57.9z"/>
    <line id="line21241" stroke-width="8" stroke-miterlimit="10" stroke-linejoin="round" stroke-linecap="round" stroke="#404040" fill="#242424" y2="84" y1="84" x2="89" x1="39"/>
    <path id="path21243" fill="#242424" d="M82.8 45.5c4.2 0 8 3.6 8 9.5s-3.8 9.4-8 9.4-8-3.6-8-9.5 3.8-9.4 8-9.4zm-37.6 0c-4.2 0-8 3.6-8 9.5s3.8 9.4 8 9.4 8-3.6 8-9.5-3.8-9.4-8-9.4z"/>
  </g>
</svg>
