<svg xmlns="http://www.w3.org/2000/svg" xmlns:xlink="http://www.w3.org/1999/xlink" id="svg6933" version="1.1" fill="none" viewBox="0 0 1570 1194" height="1194" width="1570">
  <rect id="rect6778" fill="#F6F2FD" height="1194" width="1570" x="0" y="0" style="opacity:1;stop-opacity:1"/>
  <g transform="matrix(.83333 0 0 .83333 193.7 490.7)" id="g8355">
    <path style="fill:url(#a)" id="path7769" fill="url(#a)" d="M64 119.9c-28 0-58-17.5-58-55.9S36 8.1 64 8.1c15.5 0 29.8 5.1 40.4 14.4A53.5 53.5 0 0 1 122 64c0 16.9-6.1 31.2-17.6 41.4A60.6 60.6 0 0 1 64 119.9z"/>
    <path id="path7771" fill="#EB8F00" d="M64 10.1c15 0 28.9 5 39 14A51.5 51.5 0 0 1 120 64c0 16.3-5.9 30-17 39.9-10.2 9-24 14-39 14s-28.9-5-39-13.8A51.5 51.5 0 0 1 8 64c0-16.5 5.9-30.4 17-40.2a58.9 58.9 0 0 1 39-13.7m0-4C32.9 6.1 4 26.1 4 64c0 37.7 28.9 57.9 60 57.9s60-20.7 60-57.9c0-37.4-28.9-57.9-60-57.9z"/>
    <path id="path7773" fill="#242424" d="M64 96.1C52 96.1 43.5 90 41 86c-1-1.6-1.5-3.4-.5-4.4 2.1-2.2 11.2 4 23.6 4 12.4 0 21.8-6 23.7-4 1 1 .4 2.8-.6 4.4-2.5 3.9-11 10.1-23 10.1z"/>
    <path id="path7775" fill="#242424" d="M82.8 41.4c4.2 0 8 3.5 8 9.4s-3.8 9.4-8 9.4-8-3.5-8-9.4 3.8-9.4 8-9.4z"/>
    <path id="path7777" fill="#242424" d="M45.2 41.4c-4.2 0-8 3.5-8 9.4s3.8 9.4 8 9.4 8-3.5 8-9.4-3.8-9.4-8-9.4z"/>
  </g>
  <path id="path6780" fill="#38679D" d="M539.8 1022.1v-71h21.9a33 33 0 0 1 16.7 4.2c5 2.8 8.8 6.8 11.6 12A37 37 0 0 1 594 985v3.2a37 37 0 0 1-4 17.7 29 29 0 0 1-11.5 12c-5 2.8-10.6 4.2-16.8 4.2h-22zm14.6-59.2v47.5h7.1c5.7 0 10.1-2 13.2-5.6 3-3.8 4.5-9.2 4.6-16.1v-3.8c0-7.2-1.5-12.7-4.5-16.4-3-3.7-7.4-5.6-13.1-5.6h-7.3zm64.4 59.2h-14.2v-52.8h14.2v52.8zm-15-66.5a7 7 0 0 1 2.1-5.2 8 8 0 0 1 5.8-2 8 8 0 0 1 5.8 2 7 7 0 0 1 2.1 5.2c0 2.2-.7 4-2.2 5.3a8 8 0 0 1-5.7 2c-2.4 0-4.3-.6-5.7-2a7 7 0 0 1-2.2-5.3zm55.3 52c0-1.8-.9-3.1-2.6-4.1a28 28 0 0 0-8.2-2.7c-12.6-2.6-18.9-8-18.9-16 0-4.7 2-8.6 5.8-11.7 4-3.2 9-4.8 15.3-4.8 6.7 0 12 1.6 16.1 4.8 4 3.1 6 7.2 6 12.3h-14c0-2-.7-3.7-2-5-1.3-1.4-3.4-2-6.1-2-2.4 0-4.2.5-5.5 1.6a5 5 0 0 0-2 4c0 1.7.7 3 2.2 3.9 1.5 1 4 1.8 7.5 2.5s6.5 1.5 9 2.3c7.4 2.8 11.1 7.5 11.1 14.2 0 4.9-2 8.8-6.2 11.8-4.1 3-9.5 4.4-16 4.4-4.4 0-8.4-.8-11.8-2.3a20 20 0 0 1-8-6.5c-2-2.8-3-5.8-3-9h13.4c0 2.5 1 4.5 2.7 5.8 1.8 1.3 4 2 7 2 2.7 0 4.7-.5 6-1.5 1.5-1 2.2-2.4 2.2-4zm39.7-51.3v13h9v10.3h-9v26.4c0 2 .4 3.4 1.1 4.2.8.9 2.2 1.3 4.3 1.3 1.6 0 3-.1 4.2-.4v10.7c-2.8.9-5.6 1.3-8.6 1.3-9.8 0-14.9-5-15-15v-28.5H677v-10.3h7.7v-13h14.1zm46.6 26.2c-2-.2-3.6-.4-5-.4-5.4 0-9 1.8-10.6 5.5v34.5h-14v-52.8H729l.4 6.3c2.9-4.9 6.8-7.3 11.8-7.3 1.6 0 3 .2 4.4.7l-.2 13.5zm21.7 39.6H753v-52.8H767v52.8zm-15-66.5a7 7 0 0 1 2.1-5.2 8 8 0 0 1 5.9-2 8 8 0 0 1 5.7 2 7 7 0 0 1 2.2 5.2c0 2.2-.8 4-2.2 5.3a8 8 0 0 1-5.7 2c-2.4 0-4.3-.6-5.8-2a7 7 0 0 1-2.2-5.3zm74.3 40.6c0 8.5-1.8 15-5.4 19.8a18 18 0 0 1-15.1 7.1c-5.8 0-10.3-2.2-13.8-6.6l-.6 5.6h-12.7v-75h14.1v27a16 16 0 0 1 12.9-5.8 18 18 0 0 1 15 7.2 31.8 31.8 0 0 1 5.6 20v.7zm-14.1-1c0-5.4-.8-9.3-2.5-11.7a8.6 8.6 0 0 0-7.6-3.7c-4.5 0-7.6 1.8-9.3 5.5v20.9c1.7 3.7 4.9 5.5 9.4 5.5s7.5-2.2 9-6.7c.7-2.2 1-5.4 1-9.8zm54.5 21.6a17.7 17.7 0 0 1-14.5 6.3c-5.6 0-10-1.6-13-4.9-3-3.2-4.4-8-4.5-14.3v-34.6H849v34.1c0 5.5 2.5 8.3 7.5 8.3 4.8 0 8.1-1.7 9.9-5v-37.4h14.2v52.8h-13.3l-.4-5.3zm41.2-60.5v13h9v10.3h-9v26.4c0 2 .4 3.4 1.1 4.2.8.9 2.2 1.3 4.3 1.3 1.6 0 3-.1 4.2-.4v10.7c-2.8.9-5.6 1.3-8.6 1.3-9.9 0-15-5-15.1-15v-28.5h-7.7v-10.3h7.7v-13H908zm41.2 66.8a26 26 0 0 1-19-7.1c-4.8-4.8-7.2-11.1-7.2-19v-1.4c0-5.3 1-10 3-14.2 2.1-4.2 5-7.4 8.8-9.7 3.7-2.2 8-3.4 12.9-3.4 7.2 0 12.9 2.3 17 6.9 4.2 4.5 6.2 11 6.2 19.3v5.8h-33.6c.5 3.5 1.8 6.2 4.1 8.3 2.3 2 5.2 3.1 8.7 3.1 5.5 0 9.7-2 12.8-5.9l7 7.8c-2.2 3-5 5.3-8.7 7a28.4 28.4 0 0 1-12 2.5zm-1.6-43.4a9 9 0 0 0-6.8 2.9 14.7 14.7 0 0 0-3.4 8h19.7v-1c0-3.2-1-5.6-2.6-7.3-1.6-1.7-3.9-2.6-6.9-2.6zm29.2 15.6a32 32 0 0 1 5.5-19.7 18 18 0 0 1 15.2-7.3c5.1 0 9.4 2 12.8 5.8v-27h14.1v75h-12.7l-.7-5.6c-3.5 4.4-8 6.6-13.6 6.6a18 18 0 0 1-15-7.3 33 33 0 0 1-5.6-20.5zm14.1 1c0 5 .9 8.8 2.6 11.4 1.7 2.7 4.2 4 7.5 4 4.4 0 7.5-1.9 9.3-5.5v-20.9c-1.8-3.7-4.8-5.5-9.2-5.5-6.8 0-10.2 5.5-10.2 16.5z"/>
  <path id="path6782" fill="#38679D" d="M154.4 1094.4c0-5.1.6-10 2-14.8 1.4-4.7 3.5-9 6.2-13 2.7-3.8 5.6-6.5 8.5-8.1l1.3 4.1c-3.3 2.6-6 6.5-8.2 11.7a51 51 0 0 0-3.5 17.6v3a51 51 0 0 0 4.8 22.8c2 4 4.2 7 6.9 9.1l-1.3 3.9a27 27 0 0 1-8.7-8.5c-5.4-7.7-8-17-8-27.8zm25.1 20.2V1065h16.3c5.4 0 9.4 1 12.1 3.3 2.8 2.3 4.1 5.5 4.1 10 0 2.3-.6 4.3-2 6.1a12.9 12.9 0 0 1-5.3 4.2c2.7.7 4.8 2.1 6.3 4.3 1.6 2 2.4 4.6 2.4 7.5 0 4.4-1.5 8-4.4 10.5a18 18 0 0 1-12.2 3.8h-17.3zm6.6-23.3v18h10.8c3 0 5.5-.8 7.2-2.4a8.4 8.4 0 0 0 2.7-6.6c0-6-3.3-9-9.8-9h-11zm0-5.2h9.9c2.9 0 5.1-.7 6.9-2.2a7.2 7.2 0 0 0 2.5-5.8c0-2.7-.7-4.7-2.3-6-1.6-1.2-4-1.8-7.3-1.8H186v15.8zm42.9 28.5h-6.3v-37h6.3v37zm-6.8-46.8c0-1 .3-1.8.9-2.6.6-.7 1.6-1 2.8-1 1.2 0 2.2.3 2.8 1 .6.8 1 1.6 1 2.6s-.4 2-1 2.6c-.6.7-1.6 1-2.8 1-1.2 0-2.2-.3-2.8-1-.6-.7-1-1.5-1-2.6zm25.5.9v9h7v4.8h-7v23c0 1.5.3 2.6 1 3.3.6.8 1.6 1.1 3.1 1.1.7 0 1.7-.1 3-.4v5.1c-1.7.5-3.3.7-4.8.7-2.9 0-5-.8-6.4-2.5a11 11 0 0 1-2.2-7.3v-23h-6.7v-4.8h6.7v-9h6.3zm23 0v9h6.8v4.8h-6.9v23c0 1.5.3 2.6 1 3.3.6.8 1.6 1.1 3.1 1.1.7 0 1.7-.1 3-.4v5.1c-1.7.5-3.3.7-4.8.7-2.9 0-5-.8-6.4-2.5a11 11 0 0 1-2.2-7.3v-23h-6.7v-4.8h6.7v-9h6.3zm11.9 27.1c0-3.6.7-6.9 2.1-9.8 1.4-2.9 3.4-5.1 6-6.7 2.5-1.5 5.4-2.3 8.7-2.3 5 0 9 1.7 12.2 5.2a20 20 0 0 1 4.7 13.9v.5a22 22 0 0 1-2.1 9.7 15.6 15.6 0 0 1-14.8 9c-5 0-9-1.7-12.2-5.2a20 20 0 0 1-4.6-13.9v-.4zm6.3.8c0 4 1 7.3 2.9 9.8 1.9 2.5 4.5 3.8 7.6 3.8a9 9 0 0 0 7.7-3.8c1.9-2.5 2.8-6 2.8-10.6 0-4-1-7.3-2.9-9.8a9.1 9.1 0 0 0-7.6-3.8 9 9 0 0 0-7.6 3.7c-1.9 2.5-2.9 6-2.9 10.6zm53.2-13.3l-3.1-.2c-4.2 0-7 1.8-8.5 5.3v26.2h-6.3v-37h6.1l.1 4.3c2.1-3.3 5-5 8.9-5 1.2 0 2.1.2 2.8.5v6zm23.7 0l-3.1-.2c-4.2 0-7 1.8-8.5 5.3v26.2H348v-37h6.2v4.3c2.1-3.3 5-5 8.9-5 1.2 0 2.1.2 2.8.5v6zm20.5 32c-5 0-9.1-1.6-12.2-5a18.4 18.4 0 0 1-4.8-13.1v-1.2c0-3.7.7-7 2.1-9.8 1.4-2.9 3.4-5.2 6-6.8 2.4-1.6 5.2-2.4 8.1-2.4 4.8 0 8.6 1.5 11.2 4.7 2.7 3.2 4 7.7 4 13.6v2.7h-25c0 3.6 1.1 6.5 3.1 8.8 2 2.2 4.7 3.4 7.8 3.4a11 11 0 0 0 5.7-1.4c1.6-1 3-2.1 4-3.6l4 3a15.5 15.5 0 0 1-14 7.1zm-.8-33.1c-2.5 0-4.7.9-6.4 2.8a13.5 13.5 0 0 0-3.2 7.8h18.5v-.5a12 12 0 0 0-2.6-7.5 8 8 0 0 0-6.3-2.6zm28.5-4.5l.3 4.6c2.8-3.6 6.5-5.3 11-5.3 7.8 0 11.8 4.4 11.9 13.2v24.4h-6.4v-24.4c0-2.7-.6-4.7-1.8-6-1.2-1.2-3-1.9-5.6-1.9-2 0-3.8.6-5.4 1.7-1.5 1-2.7 2.5-3.6 4.3v26.3H408v-37h6zm41.3-9v9h6.9v4.8h-7v23c0 1.5.4 2.6 1 3.3.6.8 1.7 1.1 3.1 1.1.8 0 1.8-.1 3-.4v5.1c-1.6.5-3.2.7-4.8.7-2.8 0-5-.8-6.4-2.5a11 11 0 0 1-2.2-7.3v-23h-6.7v-4.8h6.7v-9h6.4zm14 55.8l-3.5-2.4c2.1-3 3.3-6 3.3-9.3v-5.7h6.2v5c0 2.3-.5 4.6-1.7 6.9a16 16 0 0 1-4.2 5.5zm47-32a31.2 31.2 0 0 1-12.3-6 11.5 11.5 0 0 1-3.8-8.8c0-3.9 1.6-7.1 4.7-9.7 3.1-2.5 7.2-3.8 12.2-3.8 3.5 0 6.5.6 9.2 2a15 15 0 0 1 6.2 5.4 14 14 0 0 1 2.2 7.7h-6.6c0-3-1-5.4-2.9-7.1-1.9-1.8-4.6-2.6-8-2.6a12 12 0 0 0-7.7 2.1 7.1 7.1 0 0 0-2.7 6c0 2 .9 3.7 2.6 5.1a26 26 0 0 0 8.8 3.8c4.1 1.2 7.4 2.5 9.7 3.9 2.3 1.4 4 3 5.2 4.9 1.1 1.9 1.7 4 1.7 6.6 0 4-1.6 7.3-4.7 9.7a20.2 20.2 0 0 1-12.6 3.6c-3.4 0-6.6-.6-9.6-2-3-1.3-5.2-3-6.9-5.3a13.2 13.2 0 0 1-2.4-7.8h6.6c0 3 1.1 5.4 3.4 7.1 2.2 1.8 5.2 2.7 8.9 2.7a13 13 0 0 0 8-2.2 6.9 6.9 0 0 0 2.7-5.8c0-2.4-.8-4.3-2.6-5.6a29.4 29.4 0 0 0-9.3-4zm40.8 17.7a9 9 0 0 0 5.9-2.1c1.7-1.4 2.6-3 2.8-5.1h6c-.1 2-.9 4.1-2.2 6-1.3 2-3.1 3.5-5.4 4.6a15.4 15.4 0 0 1-7.1 1.7c-5 0-9-1.7-12-5-3-3.4-4.5-8-4.5-13.8v-1c0-3.7.7-6.9 2-9.7a15.1 15.1 0 0 1 14.5-8.8c4.1 0 7.5 1.2 10.3 3.7 2.7 2.5 4.2 5.7 4.4 9.7h-6a8.6 8.6 0 0 0-8.7-8.2 8.9 8.9 0 0 0-7.5 3.5 16.3 16.3 0 0 0-2.7 10v1.2c0 4.2 1 7.5 2.7 9.8a8.9 8.9 0 0 0 7.5 3.5zm44.6.8c-2.4 2.9-6 4.3-10.8 4.3-4 0-7-1.1-9-3.4s-3.1-5.7-3.1-10.2v-24h6.3v23.8c0 5.6 2.3 8.5 6.8 8.5 4.9 0 8-1.8 9.7-5.5v-26.8h6.3v37h-6l-.2-3.7zm24.4-42.3v9h6.9v4.8h-6.9v23c0 1.5.3 2.6 1 3.3.5.8 1.6 1.1 3 1.1.8 0 1.8-.1 3-.4v5.1c-1.6.5-3.2.7-4.8.7-2.8 0-5-.8-6.4-2.5a11 11 0 0 1-2.1-7.3v-23H613v-4.8h6.8v-9h6.3zm22.9 0v9h6.9v4.8H649v23c0 1.5.3 2.6 1 3.3.5.8 1.6 1.1 3 1.1.8 0 1.8-.1 3-.4v5.1c-1.6.5-3.2.7-4.8.7-2.8 0-5-.8-6.4-2.5a11 11 0 0 1-2.1-7.3v-23h-6.8v-4.8h6.8v-9h6.3zm21.2 46h-6.3V1062h6.3v52.5zm25.5.6c-5 0-9.1-1.6-12.2-5a18.4 18.4 0 0 1-4.8-13.1v-1.2c0-3.7.7-7 2.1-9.8 1.4-2.9 3.4-5.2 5.9-6.8 2.5-1.6 5.3-2.4 8.2-2.4 4.8 0 8.5 1.5 11.2 4.7 2.7 3.2 4 7.7 4 13.6v2.7h-25c0 3.6 1.1 6.5 3.1 8.8 2 2.2 4.7 3.4 7.8 3.4a11 11 0 0 0 5.7-1.4c1.6-1 3-2.1 4-3.6l4 3a15.5 15.5 0 0 1-14 7.1zm-.8-33.1c-2.5 0-4.7.9-6.4 2.8a13.5 13.5 0 0 0-3.2 7.8h18.5v-.5a12 12 0 0 0-2.6-7.5 8 8 0 0 0-6.3-2.6zm53.9 14.3a22 22 0 0 1-4 13.7c-2.5 3.4-6 5.1-10.4 5.1-4.7 0-8.3-1.6-10.8-5l-.3 4.3h-5.8v-52.5h6.3v19.6c2.5-3.2 6-4.7 10.5-4.7s8 1.7 10.6 5c2.6 3.5 3.9 8.1 3.9 14v.5zm-6.4-.7a17 17 0 0 0-2.4-10 8.3 8.3 0 0 0-7.2-3.5c-4.2 0-7.2 2-9 5.8v16c2 4 5 5.9 9 5.9 3 0 5.4-1.2 7.1-3.6 1.7-2.3 2.5-5.9 2.5-10.6zm37.2 15.2c-2.5 2.9-6 4.3-10.8 4.3-4 0-7-1.1-9-3.4-2.1-2.3-3.1-5.7-3.2-10.2v-24h6.4v23.8c0 5.6 2.2 8.5 6.8 8.5 4.8 0 8-1.8 9.6-5.5v-26.8h6.4v37h-6l-.2-3.7zm24.4-42.3v9h6.9v4.8h-7v23c0 1.5.4 2.6 1 3.3.6.8 1.7 1.1 3.1 1.1.8 0 1.8-.1 3-.4v5.1c-1.6.5-3.2.7-4.8.7-2.8 0-5-.8-6.4-2.5a11 11 0 0 1-2.2-7.3v-23H791v-4.8h6.7v-9h6.4zm22.9 0v9h6.9v4.8h-7v23c0 1.5.4 2.6 1 3.3.6.8 1.7 1.1 3.1 1.1.8 0 1.8-.1 3-.4v5.1c-1.6.5-3.2.7-4.8.7-2.8 0-5-.8-6.4-2.5a11 11 0 0 1-2.2-7.3v-23h-6.7v-4.8h6.7v-9h6.4zm14 55.8l-3.5-2.4c2.1-3 3.3-6 3.3-9.3v-5.7h6.2v5c0 2.3-.5 4.6-1.7 6.9a16 16 0 0 1-4.2 5.5zm32.4-9.9V1065h14c4.4 0 8.2 1 11.5 2.8 3.3 2 6 4.7 7.7 8.2 1.8 3.5 2.8 7.6 2.8 12.2v3.2c0 4.6-1 8.8-2.8 12.3a19 19 0 0 1-7.7 8.1 24 24 0 0 1-11.7 3h-13.8zm6.5-44.3v39h7c5 0 9-1.6 11.7-4.8 2.9-3.1 4.3-7.6 4.3-13.4v-2.9c0-5.6-1.3-10-4-13.2a14.1 14.1 0 0 0-11.3-4.7h-7.7zm61.3 44.3c-.4-.7-.7-2-1-3.9a14 14 0 0 1-10.5 4.6c-3.6 0-6.6-1-9-3-2.3-2.1-3.4-4.8-3.4-8 0-3.8 1.4-6.8 4.3-8.9 3-2.1 7.1-3.2 12.4-3.2h6.2v-2.9a7 7 0 0 0-2-5.3c-1.3-1.3-3.3-2-5.9-2-2.2 0-4.1.6-5.6 1.8-1.6 1.1-2.3 2.5-2.3 4.1h-6.4c0-1.8.7-3.6 2-5.3 1.3-1.8 3-3.1 5.3-4.1 2.3-1 4.7-1.5 7.4-1.5 4.3 0 7.6 1 10 3.2 2.5 2.1 3.7 5 3.8 8.8v17c0 3.4.4 6 1.3 8v.6h-6.6zm-10.5-4.8c2 0 3.8-.5 5.6-1.5 1.8-1 3-2.4 3.9-4v-7.6h-5c-7.7 0-11.6 2.3-11.6 6.8 0 2 .7 3.5 2 4.6 1.3 1.2 3 1.7 5 1.7zm34.3-41.1v9h6.9v4.8h-7v23c0 1.5.4 2.6 1 3.3.6.8 1.7 1.1 3.2 1.1.7 0 1.7-.1 3-.4v5.1c-1.7.5-3.3.7-4.9.7-2.8 0-5-.8-6.4-2.5a11 11 0 0 1-2.1-7.3v-23h-6.8v-4.8h6.8v-9h6.3zm14.1 55.8l-3.6-2.4c2.2-3 3.3-6 3.4-9.3v-5.7h6.2v5c0 2.3-.6 4.6-1.8 6.9a16 16 0 0 1-4.2 5.5zm39.3-9.9h-6.5V1065h6.5v49.7zm18.6-19.4v19.4h-6.5V1065h18.3c5.5 0 9.7 1.3 12.8 4.1 3.1 2.8 4.7 6.5 4.7 11a14 14 0 0 1-4.6 11.3c-3 2.5-7.3 3.9-13 3.9H1037zm0-5.4h11.8c3.5 0 6.2-.8 8.1-2.5 1.9-1.6 2.8-4 2.8-7.2 0-3-1-5.3-2.8-7a11.1 11.1 0 0 0-7.7-2.8H1037v19.5zm65 2.9h-20.8v22h-6.6v-49.8h30.9v5.4H1081v17h20.9v5.4zm26-.3a31.1 31.1 0 0 1-12.3-5.9 11.5 11.5 0 0 1-3.8-8.8c0-3.9 1.5-7.1 4.6-9.7 3.2-2.5 7.3-3.8 12.3-3.8 3.4 0 6.4.6 9.1 2 2.7 1.3 4.8 3.1 6.2 5.4a14 14 0 0 1 2.3 7.7h-6.6c0-3-1-5.4-3-7.1-1.8-1.8-4.5-2.6-8-2.6a12 12 0 0 0-7.6 2.1 7.1 7.1 0 0 0-2.7 6c0 2 .8 3.7 2.5 5.1a26 26 0 0 0 8.8 3.8c4.2 1.2 7.4 2.5 9.7 3.9 2.4 1.4 4.1 3 5.2 4.9 1.2 1.9 1.8 4 1.8 6.6 0 4-1.6 7.3-4.8 9.7a20.1 20.1 0 0 1-12.6 3.6c-3.4 0-6.6-.6-9.5-2-3-1.3-5.3-3-7-5.3a13.1 13.1 0 0 1-2.3-7.8h6.6c0 3 1 5.4 3.3 7.1 2.2 1.8 5.2 2.7 9 2.7 3.4 0 6-.8 7.9-2.2a6.9 6.9 0 0 0 2.8-5.8c0-2.4-.9-4.3-2.6-5.6a29.4 29.4 0 0 0-9.3-4zm25.7 32.1l-3.6-2.4c2.2-3 3.3-6 3.3-9.3v-5.7h6.2v5c0 2.3-.5 4.6-1.7 6.9a15.8 15.8 0 0 1-4.2 5.5zm32.3-9.9V1065h16.3c5.4 0 9.4 1 12.1 3.3 2.8 2.3 4.1 5.5 4.1 10 0 2.3-.6 4.3-2 6.1a12.9 12.9 0 0 1-5.4 4.2c2.7.7 4.9 2.1 6.4 4.3 1.6 2 2.4 4.6 2.4 7.5 0 4.4-1.5 8-4.4 10.5a18 18 0 0 1-12.3 3.8H1186zm6.6-23.3v18h10.8c3 0 5.5-.8 7.2-2.4a8.4 8.4 0 0 0 2.7-6.6c0-6-3.3-9-9.8-9h-11zm0-5.2h9.9c2.8 0 5.1-.7 6.8-2.2a7.2 7.2 0 0 0 2.6-5.8c0-2.7-.8-4.7-2.4-6-1.6-1.2-4-1.8-7.2-1.8h-9.7v15.8zm42.9 28.5h-6.3v-37h6.3v37zm-6.9-46.8c0-1 .4-1.8 1-2.6.6-.7 1.5-1 2.8-1 1.2 0 2.1.3 2.8 1 .6.8 1 1.6 1 2.6s-.4 2-1 2.6c-.7.7-1.6 1-2.8 1-1.3 0-2.2-.3-2.8-1-.6-.7-1-1.5-1-2.6zm25.6.9v9h7v4.8h-7v23c0 1.5.3 2.6 1 3.3.6.8 1.6 1.1 3 1.1.8 0 1.8-.1 3-.4v5.1c-1.6.5-3.2.7-4.8.7-2.8 0-5-.8-6.3-2.5a11 11 0 0 1-2.2-7.3v-23h-6.7v-4.8h6.7v-9h6.3zm29.2 41.5a9 9 0 0 0 5.9-2.1c1.7-1.4 2.6-3 2.8-5.1h6c-.2 2-.9 4.1-2.2 6a15.4 15.4 0 0 1-12.5 6.3c-5 0-9-1.7-12-5-3-3.4-4.5-8-4.5-13.8v-1c0-3.7.7-6.9 2-9.7a15 15 0 0 1 14.4-8.8c4.2 0 7.6 1.2 10.4 3.7 2.7 2.5 4.2 5.7 4.4 9.7h-6a8.6 8.6 0 0 0-8.8-8.2 8.9 8.9 0 0 0-7.5 3.5 16.3 16.3 0 0 0-2.6 10v1.2c0 4.2.9 7.5 2.7 9.8a8.9 8.9 0 0 0 7.5 3.5zm20.1-14.4c0-3.6.7-6.9 2.1-9.8 1.5-2.9 3.4-5.1 6-6.7 2.5-1.5 5.4-2.3 8.7-2.3 5 0 9 1.7 12.2 5.2 3.1 3.5 4.7 8.1 4.7 13.9v.5a22 22 0 0 1-2.1 9.7 15.6 15.6 0 0 1-14.8 9c-5 0-9-1.7-12.2-5.2a20 20 0 0 1-4.6-13.9v-.4zm6.4.8c0 4 1 7.3 2.8 9.8 2 2.5 4.5 3.8 7.7 3.8a9 9 0 0 0 7.6-3.8c1.9-2.5 2.8-6 2.8-10.6 0-4-1-7.3-2.9-9.8a9.1 9.1 0 0 0-7.6-3.8 9 9 0 0 0-7.6 3.7c-1.9 2.5-2.8 6-2.8 10.6zm42 18h-6.3v-37h6.4v37zm-6.8-46.8c0-1 .3-1.8 1-2.6.6-.7 1.5-1 2.8-1 1.2 0 2.1.3 2.8 1 .6.8 1 1.6 1 2.6s-.4 2-1 2.6c-.7.7-1.6 1-2.8 1-1.3 0-2.2-.3-2.8-1-.7-.7-1-1.5-1-2.6zm23 9.9l.2 4.6c2.8-3.6 6.5-5.3 11-5.3 7.9 0 11.8 4.4 12 13.2v24.4h-6.4v-24.4c0-2.7-.6-4.7-1.9-6-1.2-1.2-3-1.9-5.5-1.9-2 0-3.9.6-5.4 1.7-1.6 1-2.8 2.5-3.7 4.3v26.3h-6.3v-37h6zm47.2 17c0 5.1-.6 10-2 14.7-1.3 4.6-3.3 9-6.1 12.9-2.7 4-5.6 6.7-8.6 8.4l-1.3-3.9c3.5-2.7 6.3-6.8 8.4-12.5a54 54 0 0 0 3.3-18.8v-1.1c0-4.8-.5-9.3-1.5-13.4-1-4-2.4-7.8-4.2-11a25.4 25.4 0 0 0-6-7.7l1.3-3.8c3 1.6 5.9 4.4 8.6 8.3a43 43 0 0 1 6 12.9c1.5 4.7 2.1 9.7 2.1 15z"/>
  <path id="path6784" stroke-width="18" stroke="#BC66FF" d="M610.2 405.5l274 95 197-116m-471 21l77.9 284m-78-284L351 617m259.2-211.5l471-21M688 689.5l482-38.7-89-266.3m-393 305L351 617m0 0l-41-300"/>
  <path id="path6786" fill="#8BDCFF" d="M410.6 624.6l8-89.5-95-13-8.2 71.8 95.2 30.7z"/>
  <path id="path6788" stroke="#000" d="M424.1 528.9l-9 104m9-104l-106-13-9 83m115-70l8 1.2L422 637.6 318 661.1m97-28.2l-106-34m106 34l-97 21m-9-55l-89 16m98 39l-98-39m98 39v7.2m-98-46.2v7.5l98 38.7m92.5-36.5l8-89.5-95-13-8.2 71.8 95.2 30.7z"/>
  <path id="path6790" fill="#9C81BD" d="M415.1 632.9l9-104 8 1.2L422 637.6 318 661.1V654l97-21z"/>
  <path id="path6792" stroke="#000" d="M424.1 528.9l-9 104m9-104l-106-13-9 83m115-70l8 1.2L422 637.6 318 661.1m97-28.2l-106-34m106 34l-97 21m-9-55l-89 16m98 39l-98-39m98 39v7.2m-98-46.2v7.5l98 38.7m92.5-36.5l8-89.5-95-13-8.2 71.8 95.2 30.7z"/>
  <path id="path6794" fill="#FBA0F2" d="M309.1 598.9l106 34-97 21-98-39 89-16z"/>
  <path id="path6796" stroke="#000" d="M424.1 528.9l-9 104m9-104l-106-13-9 83m115-70l8 1.2L422 637.6 318 661.1m97-28.2l-106-34m106 34l-97 21m-9-55l-89 16m98 39l-98-39m98 39v7.2m-98-46.2v7.5l98 38.7m92.5-36.5l8-89.5-95-13-8.2 71.8 95.2 30.7z"/>
  <path id="path6798" fill="#B64FC7" d="M220.1 614.9l98 39v7.2l-98-38.7v-7.5z"/>
  <path id="path6800" fill="#B64FC7" d="M424.1 528.9l-9 104-106-34 9-83 106 13zm-5.5 6.2l-8 89.5-95.2-30.7 8.2-71.8 95 13z" clip-rule="evenodd" fill-rule="evenodd"/>
  <path id="path6804" fill="#8BDCFF" d="M667.7 427.3l8-89.5-95-13-8.3 71.7 95.3 30.8z"/>
  <path id="path6806" stroke="#000" d="M681.2 331.5l-9 104m9-104l-106-13-9 83m115-70l8 1.3-10.3 107.5-103.7 23.5m97-28.3l-106-34m106 34l-97 21m-9-55l-89 16m98 39l-98-39m98 39v7.3m-98-46.3v7.5l98 38.8m92.5-36.5l8-89.5-95-13-8.3 71.7 95.3 30.8z"/>
  <path id="path6808" fill="#9C81BD" d="M672.2 435.5l9-104 8 1.3-10.3 107.5-103.7 23.5v-7.3l97-21z"/>
  <path id="path6810" stroke="#000" d="M681.2 331.5l-9 104m9-104l-106-13-9 83m115-70l8 1.3-10.3 107.5-103.7 23.5m97-28.3l-106-34m106 34l-97 21m-9-55l-89 16m98 39l-98-39m98 39v7.3m-98-46.3v7.5l98 38.8m92.5-36.5l8-89.5-95-13-8.3 71.7 95.3 30.8z"/>
  <path id="path6812" fill="#FBA0F2" d="M566.2 401.5l106 34-97 21-98-39 89-16z"/>
  <path id="path6814" stroke="#000" d="M681.2 331.5l-9 104m9-104l-106-13-9 83m115-70l8 1.3-10.3 107.5-103.7 23.5m97-28.3l-106-34m106 34l-97 21m-9-55l-89 16m98 39l-98-39m98 39v7.3m-98-46.3v7.5l98 38.8m92.5-36.5l8-89.5-95-13-8.3 71.7 95.3 30.8z"/>
  <path id="path6816" fill="#B64FC7" d="M477.2 417.5l98 39v7.3l-98-38.8v-7.5z"/>
  <path id="path6818" fill="#B64FC7" d="M681.2 331.5l-9 104-106-34 9-83 106 13zm-5.5 6.3l-8 89.5-95.3-30.8 8.3-71.7 95 13z" clip-rule="evenodd" fill-rule="evenodd"/>
  <path id="path6820" stroke="#000" d="M681.2 331.5l-9 104m9-104l-106-13-9 83m115-70l8 1.3-10.3 107.5-103.7 23.5m97-28.3l-106-34m106 34l-97 21m-9-55l-89 16m98 39l-98-39m98 39v7.3m-98-46.3v7.5l98 38.8m92.5-36.5l8-89.5-95-13-8.3 71.7 95.3 30.8z"/>
  <path id="path6822" fill="#8BDCFF" d="M832.7 524.6l-8-89.5 95-13 8.2 71.8-95.2 30.7z"/>
  <path id="path6824" stroke="#000" d="M819.2 428.9l9 104m-9-104l106-13 9 83m-115-70l-8 1.2 10.2 107.5 103.8 23.5m-97-28.2l106-34m-106 34l97 21m9-55l89 16m-98 39l98-39m-98 39v7.2m98-46.2v7.5l-98 38.7m-92.5-36.5l-8-89.5 95-13 8.2 71.8-95.2 30.7z"/>
  <path id="path6826" fill="#9C81BD" d="M828.2 532.9l-9-104-8 1.2 10.2 107.5 103.8 23.5V554l-97-21z"/>
  <path id="path6828" stroke="#000" d="M819.2 428.9l9 104m-9-104l106-13 9 83m-115-70l-8 1.2 10.2 107.5 103.8 23.5m-97-28.2l106-34m-106 34l97 21m9-55l89 16m-98 39l98-39m-98 39v7.2m98-46.2v7.5l-98 38.7m-92.5-36.5l-8-89.5 95-13 8.2 71.8-95.2 30.7z"/>
  <path id="path6830" fill="#FBA0F2" d="M934.2 498.9l-106 34 97 21 98-39-89-16z"/>
  <path id="path6832" stroke="#000" d="M819.2 428.9l9 104m-9-104l106-13 9 83m-115-70l-8 1.2 10.2 107.5 103.8 23.5m-97-28.2l106-34m-106 34l97 21m9-55l89 16m-98 39l98-39m-98 39v7.2m98-46.2v7.5l-98 38.7m-92.5-36.5l-8-89.5 95-13 8.2 71.8-95.2 30.7z"/>
  <path id="path6834" fill="#B64FC7" d="M1023.2 514.9l-98 39v7.2l98-38.7v-7.5z"/>
  <path id="path6836" fill="#B64FC7" d="M819.2 428.9l9 104 106-34-9-83-106 13zm5.5 6.2l8 89.5 95.2-30.7-8.2-71.8-95 13z" clip-rule="evenodd" fill-rule="evenodd"/>
  <path id="path6838" stroke="#000" d="M819.2 428.9l9 104m-9-104l106-13 9 83m-115-70l-8 1.2 10.2 107.5 103.8 23.5m-97-28.2l106-34m-106 34l97 21m9-55l89 16m-98 39l98-39m-98 39v7.2m98-46.2v7.5l-98 38.7m-92.5-36.5l-8-89.5 95-13 8.2 71.8-95.2 30.7z"/>
  <g id="g3617">
    <path d="M1000.7 390.3l-8-89.5 95-13 8.2 71.7-95.2 30.8z" fill="#8BDCFF" id="path6840"/>
    <path d="M987.2 294.5l9 104m-9-104l106-13 9 83m-115-70l-8 1.3 10.2 107.5 103.8 23.5m-97-28.3l106-34m-106 34l97 21m9-55l89 16m-98 39l98-39m-98 39v7.3m98-46.3v7.5l-98 38.8m-92.5-36.5l-8-89.5 95-13 8.2 71.7-95.2 30.8z" stroke="#000" id="path6842"/>
    <path d="M996.2 398.5l-9-104-8 1.3 10.2 107.5 103.8 23.5v-7.3l-97-21z" fill="#9C81BD" id="path6844"/>
    <path d="M987.2 294.5l9 104m-9-104l106-13 9 83m-115-70l-8 1.3 10.2 107.5 103.8 23.5m-97-28.3l106-34m-106 34l97 21m9-55l89 16m-98 39l98-39m-98 39v7.3m98-46.3v7.5l-98 38.8m-92.5-36.5l-8-89.5 95-13 8.2 71.7-95.2 30.8z" stroke="#000" id="path6846"/>
    <path d="M1102.2 364.5l-106 34 97 21 98-39-89-16z" fill="#FBA0F2" id="path6848"/>
    <path d="M987.2 294.5l9 104m-9-104l106-13 9 83m-115-70l-8 1.3 10.2 107.5 103.8 23.5m-97-28.3l106-34m-106 34l97 21m9-55l89 16m-98 39l98-39m-98 39v7.3m98-46.3v7.5l-98 38.8m-92.5-36.5l-8-89.5 95-13 8.2 71.7-95.2 30.8z" stroke="#000" id="path6850"/>
    <path d="M1191.2 380.5l-98 39v7.3l98-38.8v-7.5z" fill="#B64FC7" id="path6852"/>
    <path fill-rule="evenodd" clip-rule="evenodd" d="M987.2 294.5l9 104 106-34-9-83-106 13zm5.5 6.3l8 89.5 95.2-30.8-8.2-71.7-95 13z" fill="#B64FC7" id="path6854"/>
    <path d="M987.2 294.5l9 104m-9-104l106-13 9 83m-115-70l-8 1.3 10.2 107.5 103.8 23.5m-97-28.3l106-34m-106 34l97 21m9-55l89 16m-98 39l98-39m-98 39v7.3m98-46.3v7.5l-98 38.8m-92.5-36.5l-8-89.5 95-13 8.2 71.7-95.2 30.8z" stroke="#000" id="path6856"/>
  </g>
  <path id="path6886" fill="#4A3B6A" d="M723.5 591.1l-13.2 169.5 50.2-7.5-9-118.7-28-43.3z"/>
  <path id="path6888" stroke-width="2" stroke="#000" d="M710.3 760.6l-122.8-7.5 57-150 79-12m-13.2 169.5l13.2-169.5m-13.2 169.5l50.2-7.5-9-118.7-28-43.3"/>
  <path id="path6890" fill="#737EB7" d="M587.5 753.1l122.8 7.5 13.2-169.5-79 12-57 150z"/>
  <path id="path6892" stroke-width="2" stroke="#000" d="M710.3 760.6l-122.8-7.5 57-150 79-12m-13.2 169.5l13.2-169.5m-13.2 169.5l50.2-7.5-9-118.7-28-43.3"/>
  <path id="path6896" fill="#7A5A4C" d="M346.5 229.4L333.2 399l50.3-7.5-9-118.7-28-43.3z"/>
  <path id="path6898" stroke-width="2" stroke="#000" d="M333.3 399l-122.8-7.6 57-150 79-12M333.2 399l13.3-169.5M333.2 399l50.3-7.5-9-118.7-28-43.3"/>
  <path id="path6900" fill="#B7A873" d="M210.5 391.4l122.8 7.5 13.2-169.5-79 12-57 150z"/>
  <path id="path6902" stroke-width="2" stroke="#000" d="M333.3 399l-122.8-7.6 57-150 79-12M333.2 399l13.3-169.5M333.2 399l50.3-7.5-9-118.7-28-43.3" style="opacity:1;stop-opacity:1"/>
  <defs id="defs6931">
    <pattern height="1" width="1" patternContentUnits="objectBoundingBox" id="pattern0">
      <use id="use6906" transform="scale(.01563)" xlink:href="#image0"/>
    </pattern>
    <pattern height="1" width="1" patternContentUnits="objectBoundingBox" id="pattern1">
      <use id="use6909" transform="scale(.01563)" xlink:href="#image1"/>
    </pattern>
    <pattern height="1" width="1" patternContentUnits="objectBoundingBox" id="pattern2">
      <use id="use6912" transform="scale(.01563)" xlink:href="#image2"/>
    </pattern>
    <pattern height="1" width="1" patternContentUnits="objectBoundingBox" id="pattern3">
      <use id="use6915" transform="scale(.01563)" xlink:href="#image0"/>
    </pattern>
    <pattern height="1" width="1" patternContentUnits="objectBoundingBox" id="pattern4">
      <use id="use6918" transform="scale(.01563)" xlink:href="#image0"/>
    </pattern>
    <pattern height="1" width="1" patternContentUnits="objectBoundingBox" id="pattern5">
      <use id="use6921" transform="scale(.01563)" xlink:href="#image0"/>
    </pattern>
    <pattern height="1" width="1" patternContentUnits="objectBoundingBox" id="pattern6">
      <use id="use6924" transform="scale(.01563)" xlink:href="#image3"/>
    </pattern>
    <linearGradient id="a" x1="64" x2="64" y1="19.7" y2="107.7" gradientUnits="userSpaceOnUse">
      <stop stop-color="#FEE133" offset=".5" id="stop7756"/>
      <stop stop-color="#FEDE32" offset=".6" id="stop7758"/>
      <stop stop-color="#FCD32F" offset=".7" id="stop7760"/>
      <stop stop-color="#FAC12B" offset=".8" id="stop7762"/>
      <stop stop-color="#F7A924" offset=".9" id="stop7764"/>
      <stop stop-color="#F6A323" offset=".9" id="stop7766"/>
    </linearGradient>
    <linearGradient y2="107.7" x2="64" y1="19.7" x1="64" gradientUnits="userSpaceOnUse" id="linearGradient8444" xlink:href="#a"/>
    <linearGradient y2="107.7" x2="64" y1="19.7" x1="64" gradientUnits="userSpaceOnUse" id="linearGradient8446" xlink:href="#a"/>
    <linearGradient y2="107.7" x2="64" y1="19.7" x1="64" gradientUnits="userSpaceOnUse" id="linearGradient8448" xlink:href="#a"/>
    <linearGradient id="f" x1="20.4" x2="47" y1="5" y2="61" gradientUnits="userSpaceOnUse">
      <stop stop-color="#fff" offset=".3" id="stop11103"/>
      <stop stop-color="#F2F2F2" offset=".4" id="stop11105"/>
      <stop stop-color="#CFCFCF" offset=".6" id="stop11107"/>
      <stop stop-color="#989898" offset=".9" id="stop11109"/>
      <stop stop-color="#878787" offset="1" id="stop11111"/>
    </linearGradient>
    <linearGradient id="e" x1="28.3" x2="41.3" y1="21.5" y2="49.1" gradientUnits="userSpaceOnUse">
      <stop stop-color="#FF87A8" offset=".2" id="stop11118"/>
      <stop stop-color="#F87C9F" offset=".3" id="stop11120"/>
      <stop stop-color="#D94874" offset="1" id="stop11122"/>
    </linearGradient>
    <linearGradient id="d" x1="67.8" x2="94.4" y1="5" y2="61" gradientTransform="matrix(-1 0 0 1 175.4 0)" gradientUnits="userSpaceOnUse">
      <stop stop-color="#fff" offset=".3" id="stop11127"/>
      <stop stop-color="#F2F2F2" offset=".4" id="stop11129"/>
      <stop stop-color="#CFCFCF" offset=".6" id="stop11131"/>
      <stop stop-color="#989898" offset=".9" id="stop11133"/>
      <stop stop-color="#878787" offset="1" id="stop11135"/>
    </linearGradient>
    <linearGradient id="c" x1="75.7" x2="88.8" y1="21.5" y2="49.1" gradientTransform="matrix(-1 0 0 1 175.4 0)" gradientUnits="userSpaceOnUse">
      <stop stop-color="#FF87A8" offset=".2" id="stop11142"/>
      <stop stop-color="#F87C9F" offset=".3" id="stop11144"/>
      <stop stop-color="#D94874" offset="1" id="stop11146"/>
    </linearGradient>
    <linearGradient id="b" x1="64" x2="64" y1="122.1" y2="47.5" gradientUnits="userSpaceOnUse">
      <stop stop-color="#D4D4D4" offset="0" id="stop11151"/>
      <stop stop-color="#E3E3E3" offset=".3" id="stop11153"/>
      <stop stop-color="#fff" offset=".7" id="stop11155"/>
    </linearGradient>
    <linearGradient id="a-3" x1="64" x2="64" y1="89.3" y2="99.9" gradientUnits="userSpaceOnUse">
      <stop stop-color="#FF87A8" offset=".2" id="stop11170"/>
      <stop stop-color="#FF6492" offset=".7" id="stop11172"/>
      <stop stop-color="#FF5589" offset="1" id="stop11174"/>
    </linearGradient>
    <linearGradient id="b-6" x1="5.7" x2="97.6" y1="93.1" y2="93.1" gradientTransform="translate(-1)" gradientUnits="userSpaceOnUse">
      <stop stop-color="#eee" offset="0" id="stop10337"/>
      <stop stop-color="#BDBDBD" offset="1" id="stop10339"/>
    </linearGradient>
    <radialGradient id="a-7" cx="32" cy="46.4" r="59.8" gradientTransform="matrix(.9896 0 0 1.0031 0 -.1)" gradientUnits="userSpaceOnUse">
      <stop stop-color="#81D4FA" offset="0" id="stop10344"/>
      <stop stop-color="#1B99DE" offset="1" id="stop10346"/>
    </radialGradient>
    <linearGradient id="cat-gradient" x1="63.9" x2="63.9" y1="25" y2="107.7" gradientUnits="userSpaceOnUse">
      <stop stop-color="#FED133" offset=".5" id="stop3769"/>
      <stop stop-color="#FDCE32" offset=".6" id="stop3771"/>
      <stop stop-color="#FCC32E" offset=".7" id="stop3773"/>
      <stop stop-color="#F9B128" offset=".8" id="stop3775"/>
      <stop stop-color="#F6A323" offset=".9" id="stop3777"/>
    </linearGradient>
    <clipPath id="mouth-clip">
      <path id="cat-mouth" d="M63.5 83.6c-10.6 0-20.4-.9-28.6-2.4a3 3 0 0 0-3.4 3.4 32 32 0 0 0 32 24.3c17.6 0 29.5-11.3 32-24.3a3 3 0 0 0-3.5-3.4c-8.2 1.5-18 2.4-28.5 2.4z"/>
    </clipPath>
    <clipPath id="clipPath4488">
      <path id="path4486" d="M63.5 83.6c-10.6 0-20.4-.9-28.6-2.4a3 3 0 0 0-3.4 3.4 32 32 0 0 0 32 24.3c17.6 0 29.5-11.3 32-24.3a3 3 0 0 0-3.5-3.4c-8.2 1.5-18 2.4-28.5 2.4z"/>
    </clipPath>
    <clipPath id="clipPath4492">
      <path id="path4490" d="M63.5 83.6c-10.6 0-20.4-.9-28.6-2.4a3 3 0 0 0-3.4 3.4 32 32 0 0 0 32 24.3c17.6 0 29.5-11.3 32-24.3a3 3 0 0 0-3.5-3.4c-8.2 1.5-18 2.4-28.5 2.4z"/>
    </clipPath>
  </defs>
  <g id="g8418" transform="matrix(.83333 0 0 .83333 893.2 425.3)">
    <path d="M64 119.9c-28 0-58-17.5-58-55.9S36 8.1 64 8.1c15.5 0 29.8 5.1 40.4 14.4A53.5 53.5 0 0 1 122 64c0 16.9-6.1 31.2-17.6 41.4A60.6 60.6 0 0 1 64 119.9z" fill="url(#a)" id="path8408" style="fill:url(#linearGradient8448)"/>
    <path d="M64 10.1c15 0 28.9 5 39 14A51.5 51.5 0 0 1 120 64c0 16.3-5.9 30-17 39.9-10.2 9-24 14-39 14s-28.9-5-39-13.8A51.5 51.5 0 0 1 8 64c0-16.5 5.9-30.4 17-40.2a58.9 58.9 0 0 1 39-13.7m0-4C32.9 6.1 4 26.1 4 64c0 37.7 28.9 57.9 60 57.9s60-20.7 60-57.9c0-37.4-28.9-57.9-60-57.9z" fill="#EB8F00" id="path8410"/>
    <path d="M64 96.1C52 96.1 43.5 90 41 86c-1-1.6-1.5-3.4-.5-4.4 2.1-2.2 11.2 4 23.6 4 12.4 0 21.8-6 23.7-4 1 1 .4 2.8-.6 4.4-2.5 3.9-11 10.1-23 10.1z" fill="#242424" id="path8412"/>
    <path d="M82.8 41.4c4.2 0 8 3.5 8 9.4s-3.8 9.4-8 9.4-8-3.5-8-9.4 3.8-9.4 8-9.4z" fill="#242424" id="path8414"/>
    <path d="M45.2 41.4c-4.2 0-8 3.5-8 9.4s3.8 9.4 8 9.4 8-3.5 8-9.4-3.8-9.4-8-9.4z" fill="#242424" id="path8416"/>
  </g>
  <g transform="matrix(.83333 0 0 .83333 507.7 315.2)" id="g8430">
    <path style="fill:url(#linearGradient8446)" id="path8420" fill="url(#a)" d="M64 119.9c-28 0-58-17.5-58-55.9S36 8.1 64 8.1c15.5 0 29.8 5.1 40.4 14.4A53.5 53.5 0 0 1 122 64c0 16.9-6.1 31.2-17.6 41.4A60.6 60.6 0 0 1 64 119.9z"/>
    <path id="path8422" fill="#EB8F00" d="M64 10.1c15 0 28.9 5 39 14A51.5 51.5 0 0 1 120 64c0 16.3-5.9 30-17 39.9-10.2 9-24 14-39 14s-28.9-5-39-13.8A51.5 51.5 0 0 1 8 64c0-16.5 5.9-30.4 17-40.2a58.9 58.9 0 0 1 39-13.7m0-4C32.9 6.1 4 26.1 4 64c0 37.7 28.9 57.9 60 57.9s60-20.7 60-57.9c0-37.4-28.9-57.9-60-57.9z"/>
    <path id="path8424" fill="#242424" d="M64 96.1C52 96.1 43.5 90 41 86c-1-1.6-1.5-3.4-.5-4.4 2.1-2.2 11.2 4 23.6 4 12.4 0 21.8-6 23.7-4 1 1 .4 2.8-.6 4.4-2.5 3.9-11 10.1-23 10.1z"/>
    <path id="path8426" fill="#242424" d="M82.8 41.4c4.2 0 8 3.5 8 9.4s-3.8 9.4-8 9.4-8-3.5-8-9.4 3.8-9.4 8-9.4z"/>
    <path id="path8428" fill="#242424" d="M45.2 41.4c-4.2 0-8 3.5-8 9.4s3.8 9.4 8 9.4 8-3.5 8-9.4-3.8-9.4-8-9.4z"/>
  </g>
  <g id="g8442" transform="matrix(.83333 0 0 .83333 557.7 578.2)">
    <path d="M64 119.9c-28 0-58-17.5-58-55.9S36 8.1 64 8.1c15.5 0 29.8 5.1 40.4 14.4A53.5 53.5 0 0 1 122 64c0 16.9-6.1 31.2-17.6 41.4A60.6 60.6 0 0 1 64 119.9z" fill="url(#a)" id="path8432" style="fill:url(#linearGradient8444)"/>
    <path d="M64 10.1c15 0 28.9 5 39 14A51.5 51.5 0 0 1 120 64c0 16.3-5.9 30-17 39.9-10.2 9-24 14-39 14s-28.9-5-39-13.8A51.5 51.5 0 0 1 8 64c0-16.5 5.9-30.4 17-40.2a58.9 58.9 0 0 1 39-13.7m0-4C32.9 6.1 4 26.1 4 64c0 37.7 28.9 57.9 60 57.9s60-20.7 60-57.9c0-37.4-28.9-57.9-60-57.9z" fill="#EB8F00" id="path8434"/>
    <path d="M64 96.1C52 96.1 43.5 90 41 86c-1-1.6-1.5-3.4-.5-4.4 2.1-2.2 11.2 4 23.6 4 12.4 0 21.8-6 23.7-4 1 1 .4 2.8-.6 4.4-2.5 3.9-11 10.1-23 10.1z" fill="#242424" id="path8436"/>
    <path d="M82.8 41.4c4.2 0 8 3.5 8 9.4s-3.8 9.4-8 9.4-8-3.5-8-9.4 3.8-9.4 8-9.4z" fill="#242424" id="path8438"/>
    <path d="M45.2 41.4c-4.2 0-8 3.5-8 9.4s3.8 9.4 8 9.4 8-3.5 8-9.4-3.8-9.4-8-9.4z" fill="#242424" id="path8440"/>
  </g>
  <g id="g11763" transform="translate(1218.2 551.2) scale(.81646)">
    <path id="path11114" fill="url(#f)" d="M53 72c-4.5 0-21-11.3-30-29C13 22.8 11.3 7.1 18.9 3.1a5 5 0 0 1 2.3-.6c7.3 0 18.6 12 27 28.4 10.1 20.1 7.5 39.5 5.2 41H53z" style="fill:url(#f)"/>
    <path id="path11116" fill="#B0B0B0" d="M21.1 4c5.7 0 16.6 9.7 25.6 27.6 4 7.9 6.5 17 7 25.7a30 30 0 0 1-1.1 13c-4.3-.7-19.5-10.9-28.1-28-9.7-19-11.7-34.3-5-37.8.5-.3 1-.4 1.6-.4m0-3.1c-1 0-2.1.2-3 .8C9 6.6 11.6 24 21.6 43.6 31 61.8 47.7 73.5 53 73.5c.5 0 .9-.1 1.2-.3 3.6-2.4 5.2-23.3-4.8-43C40.7 13 29 1 21.1 1z"/>
    <path id="path11125" fill="url(#e)" d="M42.3 34c4.7 9.4 4 19.3 2.2 20.4-1.6 1-10.6-4.6-15.3-14-4.8-9.3-6-17.5-1.8-19.8 3.6-1.9 10.2 4.1 14.9 13.5z" style="fill:url(#e)"/>
    <path id="path11138" fill="url(#d)" d="M75 72l-.3-.1c-2.3-1.5-5-20.9 5.2-41 8.4-16.4 19.7-28.4 27-28.4a5 5 0 0 1 2.4.6c7.5 4 5.8 19.7-4.4 39.9-9 17.7-25.4 29-30 29z" style="fill:url(#d)"/>
    <path id="path11140" fill="#B0B0B0" d="M106.9 4c.6 0 1.1.2 1.6.5 6.7 3.5 4.7 18.7-5 37.8-8.6 17.1-23.8 27.2-28 28-.7-1.4-1.8-5.6-1.3-13 .6-8.7 3.1-17.8 7.1-25.7 9-17.9 20-27.5 25.6-27.5m0-3.1C99 1 87.3 13 78.6 30.2c-10 19.7-8.4 40.6-4.7 43 .2.2.6.2 1 .2 5.4 0 22.2-11.6 31.4-29.7 10-19.7 12.8-37 3.7-42-1-.5-2-.7-3.1-.7z"/>
    <path id="path11149" fill="url(#c)" d="M85.7 34c-4.7 9.4-4 19.3-2.2 20.4 1.6 1 10.6-4.6 15.3-14 4.7-9.3 6-17.5 1.8-19.8-3.6-1.9-10.2 4.1-14.9 13.5z" style="fill:url(#c)"/>
    <path id="path11158" fill="url(#b)" d="M64 122.1c-35.5 0-43-17.7-43-32.6 0-25.5 16.9-42 43-42s43 16.5 43 42c0 28.4-27 32.6-43 32.6z" style="fill:url(#b)"/>
    <path id="path11160" fill="#B0B0B0" d="M64 48.9c13 0 23.9 4.1 31.2 12a41.5 41.5 0 0 1 10.4 28.6c0 10.4-3.8 18.3-11.2 23.6-7 5-17.6 7.6-30.4 7.6-19 0-41.6-5.4-41.6-31.2 0-11.3 3.7-21.4 10.4-28.6 7.3-7.9 18.1-12 31.2-12m0-2.8c-29.5 0-44.4 20-44.4 43.4 0 23.5 17.7 34 44.4 34 26.2 0 44.4-10.5 44.4-34S93.3 46.1 64 46.1z"/>
    <g id="g11166" fill="#404040">
      <ellipse id="ellipse11162" ry="6.7" rx="6.2" cy="78.6" cx="84.4"/>
      <ellipse id="ellipse11164" ry="6.7" rx="6.2" cy="78.5" cx="43.6"/>
    </g>
    <path id="path11168" stroke-width="3" stroke-miterlimit="10" stroke-linejoin="round" stroke-linecap="round" stroke="#B3B3B3" fill="none" d="M80.8 101.4a8.3 8.3 0 0 1-2.3 4.4 8.5 8.5 0 0 1-12.1-.3c-1.4-1.4-2.2-5.6-2.4-7.3-.2 1.7-1 5.9-2.3 7.2a8.5 8.5 0 0 1-12 0 8.8 8.8 0 0 1-2.5-4.4"/>
    <path id="path11177" fill="url(#a)" d="M57.7 89c-2 0-3.4 2-2.7 3.9 1.6 4.1 4.3 7 8.8 7h.4c4.4 0 7.2-2.9 8.8-7 .7-2-.7-3.9-2.8-3.9z" style="fill:url(#a-3)"/>
  </g>
  <g id="g10942" transform="translate(1115.8 252.8) scale(.81755)">
    <path id="path10342" fill="url(#b)" d="M52 87.8C49.5 86 46 84.3 42.4 85c-9.9 2.2-37.5-9.7-37.5-9.7s-1.5 22.7 20.6 31c27 10.3 57.6 1.9 71.3-16.3.2-.3-27.7 9.1-44.6-2.3z" style="fill:url(#b-6)"/>
    <path id="path10349" fill="url(#a)" d="M115 50.8c-5.5-1.2-6.9-1.5-9.2-.3-1 .5-2 0-2.5-1C101.8 46 93 43.8 90 42.8c-1.5-.5-2.5.7-2.4 2.3.1 1.3 3 8.5 6 10.9 12.4 9.6 1 28.3-15.8 22.3-12.3-4.4 2-28-11.7-33.7-11-4.6-43.5-16.2-52.3-5C7.3 47.7 5 75.2 5 75.2s13.9 9.3 37.4 10.6c.4 0 0 4.6 2.6 10.3 9.6 20.3 29 20.6 27.4 18.2A102.8 102.8 0 0 1 59.2 91c7.8 4 33.4 5.2 37.5-1.1 9-13.9 4.6-27.3 10.4-28 6.6-.8 12.3-2.5 16.6-7.3 1-1.2 0-3-1.6-2.8-1.7.2-3.8-.4-7-1.1z" style="fill:url(#a-7)"/>
    <ellipse id="ellipse10351" fill="#fff" ry="5" rx="5" cy="69.1" cx="33.6"/>
    <ellipse style="fill:#4d4d4d" id="ellipse10353" ry="2.6" rx="2.6" cy="69.1" cx="33.6"/>
    <path id="path10355" fill="#BDBDBD" d="M12.4 82.8l.6 1.1.6 1.3 1 1.6 1 2c.4.6 1 1.2 1.4 2l1.5 2 1.6 2 1.8 1.9 1.9 1.7 1.8 1.6 1.7 1.3c.6.4 1 .8 1.5 1l1.3.9 1 .7v.2l-1.2-.4-1.4-.6-1.7-.8-2-1.2-2-1.4c-.7-.6-1.4-1.1-2-1.8l-2-2-1.7-2.1c-.6-.7-1-1.5-1.5-2.2-.4-.8-.9-1.5-1.2-2.3a22 22 0 0 1-2-5.2l-.2-1.3z"/>
    <path id="path10357" fill="#BDBDBD" d="M19.9 84.1l.7 1.2.7 1.3 1 1.6 1.3 1.9 1.4 2 1.6 2.1 1.8 2.1 1.9 2 1.9 1.8c.6.6 1.2 1.2 1.9 1.6l1.7 1.4 1.6 1.2 1.2.9 1 .8v.2l-1.2-.6-1.4-.6c-.5-.2-1.1-.5-1.7-1l-2-1.1-2.1-1.6-2.1-1.8-2-2-1.9-2.2-1.6-2.3-1.3-2.3a26.4 26.4 0 0 1-2.6-6.6z"/>
    <path id="path10359" fill="#BDBDBD" d="M28.7 87.8l.7 1.1.8 1.3 1 1.6 1.3 1.8 1.5 2 1.7 1.9 2 1.8c.6.6 1.2 1.3 2 1.8l2 1.6c.7.4 1.3 1 2 1.3l1.9 1.2 1.6.9 1.3.7 1.2.6v.2l-1.3-.3-1.4-.4-1.9-.7-2-1c-.8-.3-1.5-.7-2.3-1.2l-2.3-1.5-2.1-1.8-2-2-1.7-2.2-1.4-2.2a21.4 21.4 0 0 1-1.9-3.8l-.5-1.4-.4-1.2z"/>
    <path id="path10361" stroke-width="3" stroke-miterlimit="10" stroke-linejoin="round" stroke-linecap="round" stroke="#3592CA" fill="none" d="M122.2 52c-1.8.1-3.9-.5-7.2-1.2-5.5-1.2-6.9-1.5-9.2-.3-1 .5-2 0-2.5-1C101.8 46 93 43.8 90 42.8c-1.5-.5-2.5.7-2.4 2.3.1 1.3 3 8.5 6 10.9 12.4 9.6 1 28.3-15.8 22.3-12.3-4.4 2-28-11.7-33.7-11-4.6-43.5-16.2-52.3-5-6.4 8.2-8.9 35.8-8.9 35.8s-1.5 22.7 20.6 31a69 69 0 0 0 31.3 4.1c8.4 5.9 16.7 5.5 15.6 3.8l-4-6A53.8 53.8 0 0 0 96.8 90c9-13.9 4.6-27.3 10.4-28 6.6-.8 12.3-2.5 16.6-7.3 1-1.2 0-3-1.5-2.8z"/>
  </g>
  <g transform="translate(115.7 294.3)" id="g3637">
    <path id="path3619" fill="#8BDCFF" d="M1000.7 390.3l-8-89.5 95-13 8.2 71.7z"/>
    <path id="path3621" stroke="#000" d="M987.2 294.5l9 104m-9-104l106-13 9 83m-115-70l-8 1.3 10.2 107.5 103.8 23.5m-97-28.3l106-34m-106 34l97 21m9-55l89 16m-98 39l98-39m-98 39v7.3m98-46.3v7.5l-98 38.8m-92.5-36.5l-8-89.5 95-13 8.2 71.7z"/>
    <path id="path3623" fill="#9C81BD" d="M996.2 398.5l-9-104-8 1.3 10.2 107.5 103.8 23.5v-7.3z"/>
    <path id="path3625" stroke="#000" d="M987.2 294.5l9 104m-9-104l106-13 9 83m-115-70l-8 1.3 10.2 107.5 103.8 23.5m-97-28.3l106-34m-106 34l97 21m9-55l89 16m-98 39l98-39m-98 39v7.3m98-46.3v7.5l-98 38.8m-92.5-36.5l-8-89.5 95-13 8.2 71.7z"/>
    <path id="path3627" fill="#FBA0F2" d="M1102.2 364.5l-106 34 97 21 98-39z"/>
    <path id="path3629" stroke="#000" d="M987.2 294.5l9 104m-9-104l106-13 9 83m-115-70l-8 1.3 10.2 107.5 103.8 23.5m-97-28.3l106-34m-106 34l97 21m9-55l89 16m-98 39l98-39m-98 39v7.3m98-46.3v7.5l-98 38.8m-92.5-36.5l-8-89.5 95-13 8.2 71.7z"/>
    <path id="path3631" fill="#B64FC7" d="M1191.2 380.5l-98 39v7.3l98-38.8z"/>
    <path id="path3633" fill="#B64FC7" d="M987.2 294.5l9 104 106-34-9-83zm5.5 6.3l8 89.5 95.2-30.8-8.2-71.7z" clip-rule="evenodd" fill-rule="evenodd"/>
    <path id="path3635" stroke="#000" d="M987.2 294.5l9 104m-9-104l106-13 9 83m-115-70l-8 1.3 10.2 107.5 103.8 23.5m-97-28.3l106-34m-106 34l97 21m9-55l89 16m-98 39l98-39m-98 39v7.3m98-46.3v7.5l-98 38.8m-92.5-36.5l-8-89.5 95-13 8.2 71.7z"/>
  </g>
  <g id="g4468" transform="matrix(.83285 0 0 .83285 193.7 222.2)">
    <path d="M21.8 55.7c-2.2 0-4.1-.5-5.7-1.6-12.7-8.8-10.5-38-10.5-38.2.4-4 3.4-7 7.2-7h.7c11.3 1.2 26 5.6 33.3 14.5 3.8 4.6 2.5 10 .7 13.8-4.5 9.7-16.8 18.5-25.7 18.5z" fill="#FED133" id="path3780" style="opacity:1;stop-opacity:1"/>
    <path d="M12.8 10.4h.5c11 1.1 25.3 5.4 32.4 14 1.8 2.2 3.3 6 .5 12.2-4.3 9-16.2 17.6-24.4 17.6-2 0-3.5-.5-4.8-1.3C7 45.9 6.5 23.9 7 16c.3-3.2 2.7-5.6 5.7-5.6m0-3A8.9 8.9 0 0 0 4 15.8c-.5 6.7-.6 31.3 11.2 39.5 1.8 1.3 4 1.9 6.5 1.9 14.8 0 36.8-22 26.2-34.8-8-9.7-23.6-13.9-34.4-15h-.8z" fill="#EB8F00" id="path3782" style="opacity:1;stop-opacity:1"/>
    <path d="M5.8 22c0-1.3.2-2.7 1.1-3.6 1.2-1.3 3.1-1.1 4.8-.8 4.5 1 8.8 3 12.4 5.8 1.8 1.5 3.5 3.2 4 5.5 1 3.5-1.3 7-3.4 9.8-1.4 2-3 4.1-4.8 5.7-1.5 1.4-4 4.9-6.1 5.1-2.1.3-2.3-3.7-3.1-5.4a45.4 45.4 0 0 1-4.9-22z" fill="#EB8F00" id="path3784" style="opacity:1;stop-opacity:1"/>
    <path d="M106.2 55.7c-8.9 0-21.2-8.8-25.7-18.5-1.8-3.8-3.1-9.2.7-13.8 7.3-9 22-13.3 33.3-14.5h.7c3.8 0 6.8 3 7.1 7 0 .3 2.3 29.4-10.4 38.2a9.6 9.6 0 0 1-5.7 1.6z" fill="#FED133" id="path3786" style="opacity:1;stop-opacity:1"/>
    <path d="M115.2 10.4c3 0 5.4 2.4 5.7 5.6.6 8 0 30-9.9 36.9a8.2 8.2 0 0 1-4.8 1.3c-8.2 0-20.1-8.6-24.4-17.6-2.8-6.1-1.3-10 .5-12.2 7.1-8.6 21.4-12.9 32.4-14h.5m0-3a8 8 0 0 0-.8 0C103.6 8.5 88 12.7 80 22.4c-10.6 12.9 11.4 34.8 26.2 34.8 2.4 0 4.7-.6 6.5-1.9 11.8-8.2 11.7-32.8 11.1-39.5a8.9 8.9 0 0 0-8.6-8.4z" fill="#EB8F00" id="path3788" style="opacity:1;stop-opacity:1"/>
    <path d="M122.2 22c0-1.3-.2-2.7-1.1-3.6-1.2-1.3-3.1-1.1-4.8-.8-4.5 1-8.8 3-12.4 5.8a10.4 10.4 0 0 0-4 5.5c-1 3.5 1.3 7 3.4 9.8 1.4 2 3 4.1 4.8 5.7a18 18 0 0 0 7.1 3.8c2.1.3 1.3-2.4 2.1-4.1a45.4 45.4 0 0 0 4.9-22z" fill="#EB8F00" id="path3790" style="opacity:1;stop-opacity:1"/>
    <path d="M64 119.1c-25.8 0-53.6-16.4-53.6-52.5 0-36 27.8-52.5 53.5-52.5 14.3 0 27.5 4.8 37.3 13.6a50.6 50.6 0 0 1 16.2 39c0 15.8-5.6 29.2-16.3 38.8A55.3 55.3 0 0 1 64 119.1z" fill="url(#cat-gradient)" id="path3793" style="opacity:1;fill:url(#cat-gradient);stop-opacity:1"/>
    <path d="M64 15.6a49.2 49.2 0 0 1 52 51c0 15.4-5.5 28.5-15.9 37.8A53.8 53.8 0 0 1 64 117.6c-25 0-52-16-52-51 0-15.6 5.5-28.8 15.8-38 9.4-8.4 22.3-13 36.2-13m0-3c-28.5 0-55 18.7-55 54 0 35.2 26.5 54 55 54 28.6 0 55-19.3 55-54 0-34.8-26.4-54-55-54z" fill="#EB8F00" id="path3795" style="opacity:1;stop-opacity:1"/>
    <line x1="8.7" x2="28.6" y1="105.6" y2="95.2" id="line3798" style="opacity:1;fill:none;stroke:#404040;stroke-width:4;stroke-linecap:round;stroke-linejoin:round;stroke-miterlimit:10;stop-opacity:1"/>
    <line x1="27.1" x2="6" y1="88" y2="91" id="line3800" style="opacity:1;fill:none;stroke:#404040;stroke-width:4;stroke-linecap:round;stroke-linejoin:round;stroke-miterlimit:10;stop-opacity:1"/>
    <line x1="6" x2="27.3" y1="75.7" y2="80.9" id="line3802" style="opacity:1;fill:none;stroke:#404040;stroke-width:4;stroke-linecap:round;stroke-linejoin:round;stroke-miterlimit:10;stop-opacity:1"/>
    <line x1="119.3" x2="99.5" y1="105.6" y2="95.2" id="line3805" style="opacity:1;fill:none;stroke:#404040;stroke-width:4;stroke-linecap:round;stroke-linejoin:round;stroke-miterlimit:10;stop-opacity:1"/>
    <line x1="100.8" x2="122" y1="88" y2="91" id="line3807" style="opacity:1;fill:none;stroke:#404040;stroke-width:4;stroke-linecap:round;stroke-linejoin:round;stroke-miterlimit:10;stop-opacity:1"/>
    <line x1="122" x2="100.7" y1="75.7" y2="80.9" id="line3809" style="opacity:1;fill:none;stroke:#404040;stroke-width:4;stroke-linecap:round;stroke-linejoin:round;stroke-miterlimit:10;stop-opacity:1"/>
    <path d="M66.5 73.2l5.4-6.1c1.9-2.2.4-5.5-2.5-5.5H58.6A3.3 3.3 0 0 0 56 67l5.4 6a3.3 3.3 0 0 0 5 0z" fill="#603813" id="path3812" style="opacity:1;stop-opacity:1"/>
    <line x1="64" x2="64" y1="69.8" y2="90.8" fill="none" stroke="#404040" stroke-linecap="round" stroke-linejoin="round" stroke-miterlimit="10" stroke-width="5" id="line3814" style="opacity:1;stop-opacity:1"/>
    <line x1="56" x2="56" y1="16.7" y2="37.7" fill="none" stroke="#EB8F00" stroke-linecap="round" stroke-linejoin="round" stroke-miterlimit="10" stroke-width="7" id="line3817" style="opacity:1;stop-opacity:1"/>
    <line x1="72" x2="72" y1="16.7" y2="37.7" fill="none" stroke="#EB8F00" stroke-linecap="round" stroke-linejoin="round" stroke-miterlimit="10" stroke-width="7" id="line3819" style="opacity:1;stop-opacity:1"/>
    <ellipse cx="37.1" cy="59.6" rx="8.8" ry="10" fill="#404040" id="ellipse3822" style="opacity:1;stop-opacity:1"/>
    <ellipse cx="90.9" cy="59.5" rx="8.8" ry="10" fill="#404040" id="ellipse3824" style="opacity:1;stop-opacity:1"/>
    <path d="M63.5 83.6c-10.6 0-20.4-.9-28.6-2.4a3 3 0 0 0-3.4 3.4 32 32 0 0 0 32 24.3c17.6 0 29.5-11.3 32-24.3a3 3 0 0 0-3.5-3.4c-8.2 1.5-18 2.4-28.5 2.4z" clip-path="url(#mouth-clip)" fill="#242424" id="path3829" style="opacity:1;stop-opacity:1"/>
    <path d="M99.2 82.8v-10H27.7v10c11 6.5 23.1 10 35.8 10 12.6 0 24.7-3.5 35.7-10z" clip-path="url(#mouth-clip)" fill="#fff" id="path3831" style="opacity:1;stop-opacity:1"/>
    <path d="M63.5 99.7c-8 0-14.8 4.3-18.5 10.7a39.3 39.3 0 0 0 18.5 4.2c7.2 0 13.7-1.6 18.5-4.2a21.3 21.3 0 0 0-18.5-10.7z" clip-path="url(#mouth-clip)" fill="#ED7770" id="path3833" style="opacity:1;stop-opacity:1"/>
    <path id="path3839" fill="#EB8F00" d="M90.8 85.7a25 25 0 0 1-8.3 12.6 29.7 29.7 0 0 1-19 6.4c-12.7 0-24.1-8-27.4-19a167.6 167.6 0 0 0 54.7 0m1.7-4.5H92c-8.2 1.5-18 2.4-28.5 2.4a159.1 159.1 0 0 1-29-2.4 3 3 0 0 0-3 3.4 32 32 0 0 0 32 24.3c17.6 0 29.5-11.3 32-24.3a3 3 0 0 0-3-3.4z" style="opacity:1;stop-opacity:1"/>
  </g>
</svg>
